/* XPM */
static char *_f8a2dfb2fb64e56ebdf3c5668e1680ck0hw4211ocQqXgUg[] = {
/* columns rows colors chars-per-pixel */
"32 32 5 1 ",
"  c None",
". c #72683E",
"X c #DFB500",
"o c #F8D634",
"O c #FFF83A",
/* pixels */
"                                ",
"                                ",
"                                ",
"                                ",
"                                ",
"                                ",
"                                ",
"               ...              ",
"              .OOO.             ",
"              .ooo.             ",
"              .OOO..            ",
"             .oooo..            ",
"             .OOO.o.            ",
"             .ooo.o.            ",
"             .OOO.o.            ",
"             .OOO.o.            ",
"             .ooo.o.            ",
"             .OOO.o.            ",
"             .ooo.o.            ",
"             .XXX.o.            ",
"             .oooo..            ",
"              .XXX..            ",
"              .ooo.             ",
"              .XXX.             ",
"               ...              ",
"                                ",
"                                ",
"                                ",
"                                ",
"                                ",
"                                ",
"                                "
};
