/* XPM */
static char *_e0da3370b0d423df307898165a0e9a30R7rOEGtRG1aQ2nQ[] = {
/* columns rows colors chars-per-pixel */
"32 32 6 1 ",
"  c None",
". c #72683E",
"X c #DFB500",
"o c #E8C831",
"O c #F8D634",
"+ c #FFF83A",
/* pixels */
"                                ",
"                                ",
"                                ",
"                                ",
"                                ",
"                                ",
"                                ",
"              ....              ",
"             ..+++.             ",
"             ..OOO.             ",
"             .o.+++.            ",
"            .X+.OOO.            ",
"            .o+.+++.            ",
"            .++o.OOO.           ",
"            .++X.+++.           ",
"            .X+X.+++.           ",
"            .o+o.OOO.           ",
"            .o+o.+++.           ",
"            .o+o.OOO.           ",
"            .oX.XXX.            ",
"            .Xo.OOO.            ",
"             .o.XXX.            ",
"             ..OOO.             ",
"             ..XXX.             ",
"              ....              ",
"                                ",
"                                ",
"                                ",
"                                ",
"                                ",
"                                ",
"                                "
};
