/* XPM */
static char *_32e747df0304aaddb43ac552d1a3aa5706cCGuLKGxC4MQW[] = {
/* columns rows colors chars-per-pixel */
"32 32 6 1 ",
"  c None",
". c #72683E",
"X c #DFB500",
"o c #E8C831",
"O c #F8D634",
"+ c #FFF83A",
/* pixels */
"                                ",
"                                ",
"                                ",
"                                ",
"                                ",
"                                ",
"                                ",
"               ....             ",
"              .+++..            ",
"              .OOO..            ",
"             .+++.o.            ",
"             .OOO.+X.           ",
"             .+++.+o.           ",
"            .OOO.o++.           ",
"            .+++.X++.           ",
"            .+++.X+X.           ",
"            .OOO.o+o.           ",
"            .+++.o+o.           ",
"            .OOO.o+o.           ",
"             .XXX.Xo.           ",
"             .OOO.oX.           ",
"             .XXX.o.            ",
"              .OOO..            ",
"              .XXX..            ",
"               ....             ",
"                                ",
"                                ",
"                                ",
"                                ",
"                                ",
"                                ",
"                                "
};
