/* XPM */
static char *_57fe8f8dc004e17d2ff92bdc7135f5djXsiXYGQ3hPIRiFN[] = {
/* columns rows colors chars-per-pixel */
"32 32 5 1 ",
"  c None",
". c #72683E",
"X c #DFB500",
"o c #F8D634",
"O c #FFF83A",
/* pixels */
"                                ",
"                                ",
"                                ",
"                                ",
"                                ",
"                                ",
"                                ",
"               ...              ",
"              .OOO.             ",
"              .ooo.             ",
"             ..OOO.             ",
"             ..oooo.            ",
"             .o.OOO.            ",
"             .o.ooo.            ",
"             .o.OOO.            ",
"             .o.OOO.            ",
"             .o.ooo.            ",
"             .o.OOO.            ",
"             .o.ooo.            ",
"             .o.XXX.            ",
"             ..oooo.            ",
"             ..XXX.             ",
"              .ooo.             ",
"              .XXX.             ",
"               ...              ",
"                                ",
"                                ",
"                                ",
"                                ",
"                                ",
"                                ",
"                                "
};
