/* XPM */
static char *result[] = {
/* columns rows colors chars-per-pixel */
"32 32 12 1 ",
"  c #33323D",
". c #B43B6A",
"X c #DE5050",
"o c #F18770",
"O c #EED878",
"+ c #68538A",
"@ c #7B7BAB",
"# c #B36AA0",
"$ c #94A2BD",
"% c #E39BBA",
"& c white",
"* c None",
/* pixels */
"********************************",
"********************************",
"********************************",
"********************************",
"********************************",
"***********           **********",
"********** @@@@@@@@@@+ *********",
"********* @$$@@@@@@@@@+     ****",
"********* @$$@@@@@@@@@+  ++@ ***",
"******** @@@@@@@@@@@@@++  +@ ***",
"******** @$@@@@@@@@@@@++  +  ***",
"******** @@@@@@@@@@@@@++   *****",
"********            @@++  ******",
"******** XXoooXoXXXX @++ *******",
"******* XX         XX ++ *******",
"******* X & & & & & X ++ *******",
"******* . & & & & & . ++ *******",
"******* ..& ..... &.. ++  ******",
"****** + ...     ... +++ + *****",
"***** @+    +++++   +++++@@ ****",
"***** @+ @@@@@@@@++++++++@@ ****",
"*****    @@@     +++++++    ****",
"********    &OOOO        *******",
"******** %%%######%%%%## *******",
"******** %%%        %%## *******",
"********* %## ***** ##  ********",
"********** ++ ****** ++ ********",
"***********   ******   *********",
"********************************",
"********************************",
"********************************",
"********************************"
};
