/* XPM */
static char *_48ba088349447649fde4245ab3090a5X2jJQG4u7GW9NBPp[] = {
/* columns rows colors chars-per-pixel */
"64 64 138 2 ",
"   c None",
".  c #4F2713",
"X  c #4E2913",
"o  c #532C14",
"O  c #542E19",
"+  c #57321C",
"@  c #59341D",
"#  c #5D381E",
"$  c #5B3721",
"%  c #5E3B24",
"&  c #613D25",
"*  c #613E29",
"=  c #624127",
"-  c #64442C",
";  c #674B2F",
":  c #694A2F",
">  c #674731",
",  c #654A35",
"<  c #6A4D31",
"1  c #634C38",
"2  c #6C4E39",
"3  c #6E5134",
"4  c #66513D",
"5  c #68523F",
"6  c #705335",
"7  c #735539",
"8  c #75593B",
"9  c #785A3E",
"0  c #675341",
"q  c #695542",
"w  c #6C5843",
"e  c #6F5F4D",
"r  c #7A5E43",
"t  c #6F604E",
"y  c #7D6144",
"u  c #73624E",
"i  c #7F6548",
"p  c #746552",
"a  c #796653",
"s  c #7A6A56",
"d  c #7C6D5C",
"f  c #7E705E",
"g  c #806649",
"h  c #836A4D",
"j  c #876E52",
"k  c #886F52",
"l  c #806F5E",
"z  c #877053",
"x  c #8A7256",
"c  c #81715F",
"v  c #8C765A",
"b  c #8E795C",
"n  c #907A5D",
"m  c #827564",
"M  c #857866",
"N  c #867868",
"B  c #867968",
"V  c #867A69",
"C  c #887A68",
"Z  c #887A69",
"A  c #887B69",
"S  c #897B6B",
"D  c #8A7C6B",
"F  c #897C6C",
"G  c #927C61",
"H  c #937D62",
"J  c #947E62",
"K  c #957F62",
"L  c #947F63",
"P  c #957F63",
"I  c #967F63",
"U  c #947F64",
"Y  c #957F64",
"T  c #8D806F",
"R  c #8D816F",
"E  c #8F816E",
"W  c #948064",
"Q  c #958064",
"!  c #948065",
"~  c #958065",
"^  c #958165",
"/  c #968064",
"(  c #968164",
")  c #968065",
"_  c #978065",
"`  c #968165",
"'  c #978165",
"]  c #958166",
"[  c #978266",
"{  c #968267",
"}  c #978267",
"|  c #978367",
" . c #988167",
".. c #988267",
"X. c #988367",
"o. c #988468",
"O. c #998468",
"+. c #9A866A",
"@. c #9C876C",
"#. c #8E8270",
"$. c #8F8270",
"%. c #8F8273",
"&. c #918374",
"*. c #918576",
"=. c #938676",
"-. c #928677",
";. c #948778",
":. c #93887B",
">. c #94897B",
",. c #968B7B",
"<. c #968B7C",
"1. c #978B7E",
"2. c #978C7C",
"3. c #978C7D",
"4. c #968A7B",
"5. c #988B7E",
"6. c #988D7E",
"7. c #988E81",
"8. c #998F81",
"9. c #9B9082",
"0. c #9B9182",
"q. c #9A9183",
"w. c #9C9384",
"e. c #9E9487",
"r. c #9E9488",
"t. c #9F9488",
"y. c #9F9588",
"u. c #9F968A",
"i. c #A09589",
"p. c #A09689",
"a. c #A09789",
"s. c #A0968A",
"d. c #A1978A",
"f. c #A1978B",
"g. c #A1988B",
"h. c #A2988C",
"j. c #A2998C",
"k. c #A3998D",
/* pixels */
"                                                                                                                                ",
"                                                                                                                                ",
"                                                                                                                                ",
"                                                                                                                                ",
"                                                                                                                                ",
"                                                                                                                                ",
"                                                                                                                                ",
"                                                                                                                                ",
"                                                                                                                                ",
"                                                                                                                                ",
"                                                                                                                                ",
"                                                                                                                                ",
"                                                                                                                                ",
"                                                                                                                                ",
"                                                                                                                                ",
"                                                                                                                                ",
"                                                                                                                                ",
"                                                                                                                                ",
"                                                                                                                                ",
"                                                                                                                                ",
"                                                                                                                                ",
"                                                                                                                                ",
"                                                                                                                                ",
"                                % @ $ @                                             % @ @ %                                     ",
"                              $ l s a @ o o o o o @   o o o o o o o o   o o o o o o % a a f +                                   ",
"                              > N l d # 6 3 6 6 6 h @ h 3 3 3 3 6 3 9 % i 3 < 6 3 3 - d d N *                                   ",
"                              < >.D D & y h h h h k : v h h j i h h x = z h h g i h - D D :.*                                   ",
"                              2 8.=.=.* g h j h j n : n h h h h h h b : v h h h h h > -.*.8.>                                   ",
"                              2 i.;.;.* g b b b b  .8 n v n b b b b n , v x b b v b - -.=.i.,                                   ",
"                              < i.8.w.* h b b b n  .8 ' b b b b b v I < n b b b b v > >.5.i.>                                   ",
"                              2 k.h.h.= h I I I I @.7  .I I U U L L ) < ( L L L L L > i.i.i.,                                   ",
"                              2 k.i.i.= h I )  .) +.7 O.I ) ) ! ) ) ) < ) L ! ! ) ) > t.i.j.2                                   ",
"                              2 k.i.i.& h I I I ( O.6 O.) ) ! ! L I O.: ) I I U I I > e.t.h.,                                   ",
"                              > h.5.5.& g n n n n +.7 O.b n b b b b ) : O.b b b n n - 1.1.i.<                                   ",
"                              = i.2.5.$ g n n n n ( 6  .n b b G b b ) : [ b b b n v > 6.,.t.<                                   ",
"                              * w.E U @ g n n n n I 3 ) b b b b b b ) - ) n b n n n * F R q.<                                   ",
"                              * 0.R &.@ 9 j j h h z 3 x j i z i j h v & v h h h h h - D #.q.>                                   ",
"                              & ,.A A o 7 h h h h z & x i i i z h h x # z g h h h h * N N >.=                                   ",
"                              % &.G C o 9 j j j h j # k y y r y r r x + k h h h h h * N N #.*                                   ",
"                              $ o @ o o 7 9 7 7 7 g o 6 % % % # $ + r + 8 8 7 7 6 2 $ o o o $                                   ",
"                              @ ,.,.2.o o o o o o o o o o E E E D @ o o o o o o o X + >.,.>.%                                   ",
"                              % A f d o - = = = = = o = o f o o s o & o ; ; ; = ; = o d d F %                                   ",
"                              % F d d o - 7 7 7 6 8 o < o u f o t o & o 8 3 6 6 6 6 X d d M %                                   ",
"                              & m p p o - 6 < 6 3 8 o < o t u X t o % o 8 < < < < < X p p f @                                   ",
"                              % f u u o = 3 < < < 8 o < o 0 4 s q o % o 8 < < < < < o t t f +                                   ",
"                              + p t t X = 3 < 3 < 8 o ; = o o o o % < o 8 < < < < < X t t p +                                   ",
"                              o u w w X = ; ; ; ; 8 X < 3 % % - = < < o 8 ; ; ; ; < X w w u X                                   ",
"                              X u w 8 X & ; ; ; < 8 X < < < ; < < < ; X 8 ; ; ; ; ; X w w u X                                   ",
"                              o u w q X % < ; ; ; 8 X < < < < < < < < X 7 : : < : < X q q p .                                   ",
"                              . $ $ @ + % % % % % 8 o % & % % % % % % o 7 % % % % % + + + $ .                                   ",
"                              . M m m M X X X X o o o X o o o o o o X o X X o X X X M m m M .                                   ",
"                              X t t e s X d d f f f m R F F F F V T V V V V f d d X p e e e .                                   ",
"                              . 1 1 1 u X 4 4 4 4 5 q q q q q q 5 0 0 0 0 q 0 0 0 X u 1 1 1 .                                   ",
"                              . . . . . o X X X o X X X . . . . X X X X . . . . X . . X . . .                                   ",
"                                                                                                                                ",
"                                                                                                                                ",
"                                                                                                                                ",
"                                                                                                                                ",
"                                                                                                                                ",
"                                                                                                                                ",
"                                                                                                                                ",
"                                                                                                                                ",
"                                                                                                                                ",
"                                                                                                                                "
};
