/* XPM */
static char *fe15f51eef404ccee8e2b17f3afbd59cEN6ZakLuYzcp57fq[] = {
/* columns rows colors chars-per-pixel */
"64 64 29 1 ",
"  c #656C17",
". c #686F16",
"X c #72751B",
"o c #787B21",
"O c #5F5B46",
"+ c #605C48",
"@ c #64604B",
"# c #676455",
"$ c #6C6852",
"% c #7C7B6E",
"& c #7E7D71",
"* c #807F72",
"= c #807F73",
"- c #7F8124",
"; c #7F8226",
": c #828175",
"> c #838279",
", c #848279",
"< c #878679",
"1 c #87867D",
"2 c #88867D",
"3 c #89877E",
"4 c #8A8A7D",
"5 c #898780",
"6 c #8C8A80",
"7 c #8D8B83",
"8 c #8D8C83",
"9 c #8E8C83",
"0 c #939189",
/* pixels */
"XXXXXXXXXXXXXXXXXXXXXXXXXXXXXXXXXXXXXXXXXXXXXXXXXXXX..XXXXXXXXXX",
"XX************XXXX************XXXX<<<<<<<<<<<<XXXX************XX",
"X2************2XX2************2XX4<<<<<<<<<<<<4XX2************2X",
"X2************2XX2************2XX7<<<<<<<<<<<<4XX2************2X",
"X2************2XX2************2XX9<<<<<<<<<<<<9XX2************2X",
"X2************2XX2**********2##XX7<<<<<<<<<<<<9XX2************2X",
"X2************2XX2***********2XXX9<<<<<<<<<<<<9XX2************2X",
"X2************2XX2***********2XXX9<<<<<<<<<<<<9XX2************2X",
"X2************2XX2************2XX9<<<<<<<<<<<<9XX2************2X",
"X2************2XX2************2XX9<<<<<<<<<<<<9XX2************2X",
"X2************2XX2************2XX$9<<<<<<<<<<<9XX2***********:9X",
"X2************2XX2************2XXX$9<<<<<<<<<<9XX2***********9+X",
"X2************2XX5:***==******2XXXX944<<<<<<<<9XX1******&:&:9@XX",
"X2**********;o@XX5****=:*****=2X;;X9<<<4<<<4<<9XX<******:&:9+XXX",
"X@77777;o77o; XXX@9999999999997XX-Xo9000900000@XX@999799779@XXXX",
"XX@@@@@ oo@ooXXXXX+@@+@@+@@+@@+XX o.$$$$$$$$$$XXXX@+@@@@@+@XXXXX",
"XXXXXXXX ooo XXXXXXXXXXXXXXXXXXXXX..XXXXXXXXXXXXXXXXXXXXXXXXXXXX",
"XX****** oo XXXXXXXXX%%%%%%%%%XXXX**********XXXXXX*:****2XX***XX",
"X2******* oXXXXXXXXX%%%%%%%%%%>XX2************XXX2******2X****2X",
"X2***********XXXXXX%%%%%%%%%%%>XX1************2XX2*****7@*****2X",
"X5************2XX,%%%%%%%%%%%%>XX1************2XX4oo*22@X*****2X",
"X2************2XX,%%%%%%%%%%%%>XX1************2XX;;49+@XX*****5X",
"X1************,XXo%%%%%%%%%%%%>XX1************2Xoo @+XXX******2X",
"X2************,X-;%%%%%%%%%%%%>XX1************2Xoo XXXX:******2X",
"X2************,o-.%%%%%%%%%%%%,XX1************2Xo.XXX*********2X",
"X2************,oo,%%%%%%%%%%%%>XX1************2XXXX***********2X",
"X2************2..,%%%%%%%%%%%%1XX1************2XX2************2X",
"X2***********:2XX,%%%%%%%%%%%*,XX1************2XX7************2X",
"X1****=***=***2XX,%%%%%%%%%%%29XX2==*********99XX1**===****=**2X",
"X1=***==**==**5XX2%%%%%%%%%%9++XX2=*******99o;;XX1:*===****=**2X",
"X+999999999999@XX+7452552727+XXXX+99999999@@+;ooX@799999999999+X",
"XX@@+@@@+@@@+@XXXX@@++++++++XXXXXX@@@@++@@XXX.ooXX@+@@+@@+@@@@XX",
"XXXXXXXXXXXXXXXXXXXXXXXXXXXXXXXXXXXXXXXXXXXXXX.oXXXXXXXXXXXXXXXX",
"XX************XXXX<<<<<<<<<<<<XXXX:&%:%:******XXXXXXX%%%%%%%%%XX",
"X2************2XX4<<<<<<<<<<<<4XX1&::%::******2XXXXXoo%%%%%%%%*X",
"X2************2XX9<<<<<<<<<<<<9XX7:&:::%******2XXXX;o%%%%%%%%*=X",
"X2************2XX7<<<<<<<<<<<<7XX<::%%::******2XXXoo,%%%%%%%%%,X",
"X2************2XX9<<<<<<<<<<<<4XX<*::::%******;;oXoo,%%%%%%%%%>X",
"X2************2XX7<<<<<<<<<<<<7XX+4o;4<:******2;oo o%%%%%%%%%%>X",
"X2************2XX9<<<<<<<<<<<<7XXX@@;X+<******2 oo,%%%%%%%%%%%,X",
"X2************2XX9<<<<<<<<<<<<7XXXXXooX+4*****3X ,%%%%%%%%%%%%,X",
"X2************2XX9<<<<<<<<<<<<9XXXXX .XX+7****2XX,%%%%%%%%%%%%,X",
"X5:***********2XX9<<<<<<<<<<<<9XXXXXXXXXX+2***2XX:%%%%%%%%%%%%,X",
"X+2***********2XX9<<<<<<<<<<<<9XX*:::XXXXX2**=2XX,%%%%%%%%%%%%,X",
"XX@5**********5XX9<<<<<<<<<<<<9XX*****XXXX3***2XX,%%%%%%%%%%%%,X",
"XXX@2***::***=4XX9<<<<<<;<<<<0$XX9::**:XXX99**6XX+2%%%%%%%%%%%2X",
"XXXX@999999999+XX$00000; 0000$XXX+99909XXX@@999XXX+22252559275XX",
"XXXXX@+O@@@@+OOXXX$$$$oo $$$$XXXXX+@+++XXXXX+@+XXXX+++++++++O+XX",
"XXXXXXXXXXXXXXXXXXXXXXo XXXXXXXXXXXXXXXXXXXXXXXXXXXXXXXXXXXXXXXX",
"XX%&%XX,%&%%%%XXXXXX**********XXXXXXXX2******=XXXX**********XXXX",
"X,%%%%X,%%%%%%,XXX************2XXXXXX5********2XX1************XX",
"X,%%%%%+2%%%%%,XX2************2XXXXX2*********2XX1************2X",
"X,%%%%%X+52&%%,XX2************2XXX52**********2XX1************2X",
"X,%%%%%XX++5552XX2************2XX4:&**********5XX1************2X",
"X,%%%%%%XXX++++XX2************2XX1&:**********2XX1************2X",
"X,%%%%%%%XXXXXXXX2************2XX1:&**********2XX1************2X",
"X,%%%%%%%%%XXXXXX2************2XX4::%%::******2XX2************2X",
"X,%%%%%%%%%%%XXXX2************2XX1%::::%******2XX2********:979+X",
"X,%%%%%%%%%%%%,XX2*=**********2XX2:&:::%******2XX2********7+@@XX",
"X,%%%%%%%%%%%%,XX2*=**********2XX1&:%%::******2XX1*******7+XXXXX",
"X,%%%%%%%%%%%%,XX@9=**=*******2XX4**:::%******7XX1**=***9@XXXXXX",
"X,%%%%%%%%%%%*,XXX@999=:****::2XX2**:%::******1XX1*****9@XXXXXXX",
"XX4555522555292XXXX@+@999979999XX+91<4<<925955@XX@99999@XXXXXXXX",
"XX+++++++++++++XXXXXXX@@+@@+@@+XXX@@+@@@@@+@++XXXX++@@@XXXXXXXXX"
};
