/* XPM */
static char *_554783b0b724f96c045c3ecbd85ce08vApwg5o5KejyZ25U[] = {
/* columns rows colors chars-per-pixel */
"64 64 170 2 ",
"   c None",
".  c #4D1F00",
"X  c #4F2305",
"o  c #4D250B",
"O  c #522F00",
"+  c #4E2C17",
"@  c #502C10",
"#  c #512C19",
"$  c #4F301A",
"%  c #543416",
"&  c #52311C",
"*  c #58361E",
"=  c #4F3222",
"-  c #533524",
";  c #543924",
":  c #5C3D25",
">  c #543728",
",  c #543C2D",
"<  c #553F30",
"1  c #5C422B",
"2  c #564234",
"3  c #5A4435",
"4  c #5E4936",
"5  c #574638",
"6  c #5B463A",
"7  c #5D4B3D",
"8  c #63432C",
"9  c #624633",
"0  c #624936",
"q  c #624D3C",
"w  c #65513E",
"e  c #5D4E42",
"r  c #5E5145",
"t  c #5F5448",
"y  c #604E41",
"u  c #645344",
"i  c #695443",
"p  c #665843",
"a  c #64564A",
"s  c #6A5749",
"d  c #655A4D",
"f  c #6B5B4D",
"g  c #705E4E",
"h  c #655D52",
"j  c #6B5E52",
"k  c #705F51",
"l  c #6E604E",
"z  c #676156",
"x  c #6C6255",
"c  c #6D655A",
"v  c #6E695E",
"b  c #726355",
"n  c #72665A",
"m  c #736A5D",
"M  c #796B5D",
"N  c #6F6A60",
"B  c #746D62",
"V  c #796E62",
"C  c #767265",
"Z  c #797366",
"A  c #777368",
"S  c #7B766A",
"D  c #7D796D",
"F  c #7F7C71",
"G  c #80776B",
"H  c #817A6E",
"J  c #827E72",
"K  c #887F73",
"L  c #868376",
"P  c #868276",
"I  c #858275",
"U  c #868474",
"Y  c #868477",
"T  c #878477",
"R  c #858275",
"E  c #8B8172",
"W  c #8B8274",
"Q  c #898176",
"!  c #8B8376",
"~  c #888576",
"^  c #888577",
"/  c #898476",
"(  c #898676",
")  c #898777",
"_  c #898677",
"`  c #8A8677",
"'  c #8A8777",
"]  c #8D8477",
"[  c #888476",
"{  c #878478",
"}  c #878579",
"|  c #868479",
" . c #868679",
".. c #87857A",
"X. c #868479",
"o. c #898579",
"O. c #898778",
"+. c #888679",
"@. c #898679",
"#. c #898779",
"$. c #898678",
"%. c #8A8779",
"&. c #89857B",
"*. c #89867A",
"=. c #89877A",
"-. c #88877B",
";. c #8A877A",
":. c #8B877A",
">. c #8A877B",
",. c #8C877B",
"<. c #89877C",
"1. c #8B877C",
"2. c #89867A",
"3. c #8A8879",
"4. c #8B8979",
"5. c #8B887A",
"6. c #8B897A",
"7. c #8B887B",
"8. c #8A887B",
"9. c #8B8A7A",
"0. c #8C897A",
"q. c #8D8A7A",
"w. c #8D8A7B",
"e. c #8D8B7B",
"r. c #8A887C",
"t. c #8B887C",
"y. c #8A897D",
"u. c #8B897E",
"i. c #8A897E",
"p. c #8B8A7F",
"a. c #8C897C",
"s. c #8D897C",
"d. c #8C887D",
"f. c #8C897D",
"g. c #8C8A7C",
"h. c #8D8B7C",
"j. c #8C8A7D",
"k. c #8D8A7D",
"l. c #8C8B7D",
"z. c #8D8B7D",
"x. c #8E8A7D",
"c. c #8D8A7E",
"v. c #8D8A7F",
"b. c #8C8B7F",
"n. c #8D8B7F",
"m. c #8E8B7F",
"M. c #8F8C7D",
"N. c #8C897D",
"B. c #918B7E",
"V. c #8C8980",
"C. c #8D8B80",
"Z. c #8E8C80",
"A. c #8F8D80",
"S. c #8E8C81",
"D. c #8D8C82",
"F. c #8F8E82",
"G. c #8F8E83",
"H. c #8E8C81",
"J. c #918C80",
"K. c #908E80",
"L. c #918F81",
"P. c #908E83",
"I. c #918F83",
"U. c #918E82",
"Y. c #959486",
"T. c #969487",
"R. c #959184",
"E. c #999285",
"W. c #959389",
"Q. c #9C968A",
/* pixels */
"                                                                                                                                ",
"                                                                                                                                ",
"                                                                                                                                ",
"                                                                                                                                ",
"                                                                                                                                ",
"                                                                                                                                ",
"                                                                                                                                ",
"                                                                                                                                ",
"                                                                                                                                ",
"                                                                                                                                ",
"                                                    b b g b n M M n b b g i                                                     ",
"                                                  b v.&.&.4.<.! / &.M.B.,./ i                                                   ",
"                                                  b P.! &.3.( G G b ( ( ( 4.k                                                   ",
"                                            u i q b v.( ( v.I Z / S ,.&.( P.b % i i                                             ",
"                                      9 m G H K H n v.T &.4.H S H H ,.,.( P.b f H J G n :                                       ",
"                                  w ] v.R V b b g b &.( ) ,.4.v.,.&.( 4.&.M.b f j k V J B./                                     ",
"                              k ! K D B f V ( 4.4.b e.( 4.4.&.4.4.4.4.3.&.J.M <.p.&.Z b Z H i 0 0                               ",
"                          b K P.{ V b x D &.H I U Z ( ) ) e.4.4.v.M.v.&.&.&.B P T { p.&.G M M H H g f                           ",
"                      i M P.p.D m V R R H / U U 9.Z D Y.e.) 4.v.v.M.V.S.E.H m J F T { &.v.&.S x C R ! x 0                       ",
"                      ] P.V.Z b H &.R R ( I ( 4.F % m U D x m v v m m R V.V D P.R R R &.R J V.F j m ( &.H                       ",
"                  i Z S Z V B <.R R R P I v.,.J z 2 4 d p p 4 p w i w x B j m J { p.{ F F D F | p.m m Z S V 0                   ",
"                g U.&.v.m c | J R R R { 4.S z t h 7 1 2 4 4 4 4 q q w q y 7 c B A D R C.R F J R J R x n J.<.J.i                 ",
"                B.J J m V <.J V.{ R -.R d r e 6 ; w l l l C m C M B Z B h q 4 f x c N A -.R F J J J R c B P P x.                ",
"              j R J V B V.&.| V.{ V.| t e < 5 u c c m m m m m m C Z Z S Z h j S B x d N N { p.J F F F { c V P P j               ",
"              G H S k J V.V.V.P.R.&.r < 2 p z m m m m m v m C C C C Z C c S S C C A B p d v <.V.<.J R R D j H J S               ",
"        b j f b j f s b h J J K S.t , 3 l m m x m A C C C D S D D D A x J S S S C C C S c t x <.S S C n m k g b b g g f b       ",
"      K W.V.| K J J F D F B S d x 5 2 l B m n m v h z z l z c v c x d p m c c v A C C A S b 7 S D S D &.&.! ! R ! ( &.&.Q.8     ",
"    9 U.| J J J J J F J F K J G.c $ x v N m m c w p l l z l l l x x c c l x c t c A C A A F q B W.&.R J J I I I ! I I ! U.      ",
"      B.! R K D J J J J F | J | 7 4 v B x c C m w N C C C C C C C S S C A D D c f B C C A S V 6 <.J J J R R R K H ! ! ( E.      ",
"      B.{ ! S D S F P J | F P J ; d v C C B c B t C C C C C C S C Z C Z Z Z Z m d n C C A A S e J &.J K { ! R M S H J 4.E.      ",
"      R.{ { n P D B <.P F | D.H ; x A m m S m r h C C C C C C Z S Z S C S C Z m j m Z B A B S h H P J &.T &.( V ] b Z B.E.      ",
"      U.{ -.J m B K &.P -.| D.J ; x A C C C D z h C C C Z Z Z Z Z S S S C Z A m x B A A A B S h H x.J &.! &.,.b n ! / v.E.      ",
"      U.4.&.x.&.p.3.&.&.P ! V.J ; v A C A C D C z C S S F D D Z S S D Z Z Z S m c S C C C C S d D v.R &.&.( ,.v.! v.v.v.R.      ",
"      E.P.&.&.&.&.&.&.&.&.&.P.J ; c A C A A C A l C S S D D Z Z D D D Z D Z D C c D C C C C C d J S.R &.&.&.v.4.v.p.v.M.R.      ",
"      Q.R.v.p.x.4.v.<.&.&.J m x @ x A A F D D C l A S S Z D D D D D D D D D D C c D A C C C v 5 n B R 3.v.V.M.S.4.H K P.E.      ",
"      U.W.S.p.p.x.v.K m m S F J l z U S F F D C c A D Z Z D S D Z D D D D S D C v S A A B v x f J D V m f j S V.&.&.( v.J.      ",
"      B N x h h h d w V.p.{ | R F x C U D D S A c D D D D D F F D U U F U U D C v S S A D B j J H J J &.V s h a h h h h n       ",
"    o B z j n b b s 1 Z V.F R J F 9.m C U F S C x m S Z S Z S S Z Z C Z C C Z l m A S D B i Z F J G D J Z u n n b V j c B o     ",
"      m a h V.J D S b y D.| P | Y Y 9.C m J F S D m c m c n n b m c c l l c m m S D S m i B R J J J F <.a j K V.<.D.j a m       ",
"        X - P J J D H y j V.| K Y ) 9.M.m m F F F F F F R D R U U U F C m F F U F A x n C R | | K | V.h < J J J <.| , .         ",
"            b &.J J F A q B V.D.-. .{ { p.D l m M D D S S D D D Z D D U J S S m n f J <.P -.-.| P <.j 2 m D R { &.j             ",
"            = F &.J J S y a S S  .<.<.<.{ Y T V b f C S Z Z S S Z Z Z C D D x n S x.<.&.{ { P V.V.c , 0 M D | S.A o             ",
"            # j | J B V s > j c n I. .{ ) T R T H D f b n M M n b b m l b x V &.V.&.<.1.<.<.M.{ v 5 q b h n R R q +             ",
"              - j S &.V.| J n j M Y C.V.{ T T R E G G 4.B.M.e.) )  .) ) H m H &.K &.&.&.S.S.F e 5 y Z S H Z V s +               ",
"                6 v &.| | | F b f c C { M.S.{ &.! Z / / ] ( / / U U I I ( I M R &.V.I.G.R x e 7 j H J D H D 6 ,                 ",
"                  a N K -.J R V.H s f d A Z p.4.4.M B./ ( ( I / ) U U U J v.V ,.V.<.m n 7 7 7 M J H H R S 7 ,                   ",
"                    r B F -.-.P p.R.b f 7 d s b S M M.! &.4.( H F F U U I v.M Z b u 7 3 d f D D S J D m t ,                     ",
"                      a h A | S.R.Z R T C u w w % b R.,.,.B.] H F U ' e./ M.b O 0 q r Z -.R Z J ! D z 3 <                       ",
"                        > n c D B J V.K J | Z x b M P.4.v.v./ G K H ,.,.( P.n 7 v D J ) &.v.&.J v r y -                         ",
"                            6 h a F J <.V.<.J J Z M Y.v.B.P.B.B.B.B.v.4.] Y.M f U  .9.M.! D c 7 u ,                             ",
"                                3 n h N B A R J J M W.U.P.V.v.v.3.p.<.v.P.R.b d R R m c d 5 3 -                                 ",
"                                    6 d h h h h y 6 A n c z c z z x h v z B 6 1 p p w w 4 ,                                     ",
"                                        - > a i 0 6 N c c z z x x h z h d c 6 : w w - $                                         ",
"                                                  6 B j h h h z z z z z h v 6                                                   ",
"                                                  6 s 4 4 7 y e e t e e 7 a 5                                                   ",
"                                                                                                                                ",
"                                                                                                                                ",
"                                                                                                                                ",
"                                                                                                                                ",
"                                                                                                                                ",
"                                                                                                                                ",
"                                                                                                                                ",
"                                                                                                                                ",
"                                                                                                                                "
};
