/* XPM */
static char *b1350243f3214f97f0c95b10961ea829UVYcduREXmsEzw1m[] = {
/* columns rows colors chars-per-pixel */
"64 64 25 1 ",
"  c None",
". c #272524",
"X c #2B2B30",
"o c #3D2E35",
"O c #651106",
"+ c #4B2720",
"@ c #4C2821",
"# c #4A3E39",
"$ c #7E3A2C",
"% c #7F3B2D",
"& c #364153",
"* c #42424E",
"= c #64544D",
"- c #5C586F",
"; c #8A2113",
": c #B76855",
"> c #B86956",
", c #8D7266",
"< c #D0877A",
"1 c #D1887B",
"2 c #3B5D8F",
"3 c #928294",
"4 c #B1A4B3",
"5 c #F3BEB4",
"6 c #F4BFB5",
/* pixels */
"                                                                ",
"                                                                ",
"                                                                ",
"                                                                ",
"                                                                ",
"                                                                ",
"                                                                ",
"                                                                ",
"                                                                ",
"                                                                ",
"                          ............                          ",
"                       .....########.....                       ",
"                     .###..#==####==#..###.                     ",
"                    #=##o.===######===.o##=#                    ",
"                   .==##..==########==..##==.                   ",
"                   #=##o..=##########=..o##=#                   ",
"                  .==o#o..==########==..o#o==.                  ",
"                  o,=.oo..============..oo.=,o                  ",
"                  #,#.oo..#==========#..oo.#,#                  ",
"                  o,#..o..oo#==,,==#oo..o..#,o                  ",
"                  .=#o.#..oo########oo..#.o#=.                  ",
"                  .#=oo##.oo########oo.##oo=#.                  ",
"                   .=#o###ooo######ooo###o#=.                   ",
"                   .=#######oo####oo#######=.                   ",
"                   3.=####################=.3                   ",
"                   44.o##################o.44                   ",
"                   34%%..o############o..%%43                   ",
"                     @::XXX..o#==#o..XXX:>@                     ",
"                     +%:X*-3*XX::XX*3-*X:%+                     ",
"                      @>>X**XX<66<XX**X>>@                      ",
"                       %1166666666666611%                       ",
"                        %16666666666661%                        ",
"                         @%>155<<551>%@                         ",
"                         ...@%%>>%%@...                         ",
"                        .#.##34&&43##.#.                        ",
"                       .###===4224===###.                       ",
"                       ##o#===4334===#o##                       ",
"                      .##.#====22====#.##.                      ",
"                      .#o.#====&&====#.o#.                      ",
"                      #=.oo##oo==oo##oo.=#                      ",
"                     .==.o##oooo#ooo##o.==.                     ",
"                     .==.o##oooo=ooo##o.==.                     ",
"                     #=o.##ooooo3oooo##.o=#                     ",
"                     ##..##oooo=3oooo##..##                     ",
"                    %1...##oooo33=ooo##...1%                    ",
"                    %>11%###oo=33=oo###%11>%                    ",
"                    @@>%@.===......===.@%>@@                    ",
"                      %@ .===#.  .#===. @%                      ",
"                          #==##  ##==#                          ",
"                          .==#o  o#==.                          ",
"                          .....  .....                          ",
"                           ....  ....                           ",
"                           O;;.  .;;O                           ",
"                           OO.    .OO                           ",
"                                                                ",
"                                                                ",
"                                                                ",
"                                                                ",
"                                                                ",
"                                                                ",
"                                                                ",
"                                                                ",
"                                                                ",
"                                                                "
};
