/* XPM */
static char *_3081e0a46c44aba8155735b31005ecbDFQAYhijalRfi7Qn[] = {
/* columns rows colors chars-per-pixel */
"64 64 13 1 ",
"  c #636917",
". c #656C17",
"X c #686F16",
"o c #72751B",
"O c #787B21",
"+ c #A2783C",
"@ c #7F8124",
"# c #7F8226",
"$ c #A2814F",
"% c #BD9842",
"& c #C6A740",
"* c #9CA8AD",
"= c #B3B0A9",
/* pixels */
"oooooooooooooooooooooooooooooooooooooooooooooooooooooooooooooooo",
"oooooooooooooooooooooooooooooooooooooooooooooooooooooooooooooooo",
"oooooooooooooooooooooooooooooooooooooooooooooooooooooooooooooooo",
"oooooooooooooooooooooooooooooooooooooooooooooooooO#ooooooooooooo",
"oooooooooooooooooooooooooooooooooooooooooooooooooo##oooooooooooo",
"ooooooooooooooooooooooooooooooooooooooooooooooooooOOOooooooooooo",
"oooooooooooooooooooooooooooooooooooooooooooooooooo.OO.OO##oooooo",
"ooooooooooooooooooooooooooooooooooooooooooooooooooo**OOOoooooooo",
"oooooooooooooooooooooooooooooooooooooooooooooooooo*$*OO.oooooooo",
"oooooooooooooooooooooooO#ooooOOooooooooooooooooooo** O.ooooooooo",
"oooooooooooooooooooooooo##ooOOoooooooooooooooooooo  oooooooooooo",
"oooooooooooooooooooooooo.OOoOOoooooooooooooooooooooooooooooooooo",
"oooooooooooooooooooooooo.OOo..oooooooooooooooooooooooooooooooooo",
"ooooooooooooooooooooooooo..oooooooooooooooooooooooooooooooooooo#",
"oooooooooooooooooooooooooooooooooooooooooooooooooooooooooooooo#o",
"oooooooooooooooooooooooooooooooooooooooooooooooooooooooooooooOOo",
"oooooooooooooooooooooooooooooooooooooooooooooooooooooooooooooOO.",
"ooooooooooooooooooooooooooooooooooooooooooooooooooooooooooooo..O",
"oooooooooooooooooooooooooooooooooooooooooooooooooooooooooooooooO",
"ooooooooooooooooooooooooooooooooooooooooooooooooooooooooooooooo.",
"oooooooooooo%%oooooooooooooooooooooooooooooooooooooooooooooooooo",
"ooooooooooo%++%o&&oooooooooooooooooooooooo##ooooo#oooooooooooooo",
"ooooooooooo %% &+&ooooooooooooooooooooooooo#OOoO#ooooooooooooooo",
"oooooooooooo  o&& ooooooooooooooooooooooO##.O.OO.ooooooooooooooo",
"ooooooooooooooo  oooooooooooooooooooooooo#OO**OO.oo==ooooooooooo",
"ooooooooooooooooooooooooooooooooooooooooo.O*$$*.ooo$=ooooooooooo",
"oooooooooooooooooooooooooooooooooooooooooo. ** ==oo  ooooooooooo",
"oooooooooooooooooooooooooooooooooooooooooooo  =$=ooooooooooooooo",
"oooooooooooooooooooooooooooooooooooooooooooooo== ooooooooooooooo",
"oooooooooooooooooooooooooooooooooooooooooooooo  oooooooooooooooo",
"oooooooooooooooooooooooooooooooooooooooooooooooooooooooooooooooo",
"oooooooooooooooooooooooooooooooooooooooooooooooooooooooooooooooo",
"oooooooooooooooooooooooooooooooooooooooooooooooooooooooooooooooo",
"oooooooooooooooooooooooooooooooooooooooooooooooooooooooooooooooo",
"oooooooooooooooooooooooooooooooooooooooooooooooooooooooooooooooo",
"oooooooooo@ooooooooooooooooooooooooooooooooooooooooooooooooooooo",
"ooooooooooo@oooooooooooooooooooooooooooOOooooooooooooooooooooooo",
"oooooooooooOOooooooooooooooooooooooooooX@@oooooooooooooooooooooo",
"ooooooooooXOOooooooooooooooooooooooooooo#OOoooOooooooooooooooooo",
"ooooooooo@OXXoooooooooooooooooooooooooooXOOo#Ooooooooooooooooooo",
"oooooooooOOoooooooooooooooooooooooooooooXOOO&&oooooooooooo@ooooo",
"oooooooooXXooooooooooooooooooooooooooooooXX&++&ooooooooooOOoo@@O",
"ooooooooooooooooooooooooooooooooooooooooooo && %%oooooOooOXoOO@o",
"oooooooooooooooooooooooooooooooooooooooooooo  o+%oooooo@OXooOOXo",
"ooooooooooooooooooooooooooooooooooooooooooooooo  ooooooOO&&OOXO@",
"ooooooooooooooooooooooooooooooOooooooooooooooooooooooooo&++&XOOX",
"ooooooooooooooooooooooooooooooOOoooooooooooooooooooooooo && XOXo",
"ooooooooooooooooooooooooooooo==Oooooooooooooooooooooooooo  oo%%o",
"oooooooooooooooooooooooooooo=$=Xoooooooooooooooooo@@Oooooooo%++%",
"oooooooooooooooooooooooooooo== oooooooooooooooooooo@OOoooooo %% ",
"oooooooo@@ooooo@oooooooooooo  oooooooooooooooooooooXOOooooo&&  o",
"ooooooooo@OOoO@oooooooooooooooooooooooooooooooooooooXXoooo&+& oo",
"ooooooO@@XOXOOXooooooooooooooooooooooooooooooooooooooooooo&& ooo",
"ooooooo@O==XOOXo@@ooo@oooooooooooooooooooooooooooooooooooo  oooo",
"oooooooX=$$=OXooo@@o@ooooooooooooooooooooooooooooooooooooooooooo",
"oooooooo == oooooOOXOoooooooooooooooooo@@ooooOOooooooooooooooooo",
"ooooooooo  ooooo**OXXooooooooooooooooooo@Oo&&Ooooooooooooooooooo",
"ooooooooooooooo*$$*oooooooooooooooooooooXOO&+OooooooooooooooOooO",
"ooooooooooooooo ** o**ooooooooooooooooooXOO  Xoooooooooooooo@@XO",
"oooooooooooooooo  oo$*oooooooooooooooooooXXooooooooooooooooo@OOX",
"oooooooooooooooooooo  ooooooooooooooooooooooooooooooooooooooXOOo",
"oooooooooooooooooooooooooooooooooooooooooooooooooooooooooooooooo",
"oooooooooooooooooooooooooooooooooooooooooooooooooooooooooooooooo",
"oooooooooooooooooooooooooooooooooooooooooooooooooooooooooooooooo"
};
