/* XPM */
static char *result[] = {
/* columns rows colors chars-per-pixel */
"32 32 5 1 ",
"  c #33323D",
". c #D4645A",
"X c #DD8F61",
"o c #F0C088",
"O c None",
/* pixels */
"OOOOOOOOOOOOOOOOOOOOOOOOOOOOOOOO",
"OOOOOOO              OOOOOOOOOOO",
"OOOOOOO              OOOOOOOOOOO",
"OOOO   oooooooooooooo   OOOOOOOO",
"OOOO   oooooooooooooo   OOOOOOOO",
"OOOO   oooooooooooooo   OOOOOOOO",
"OOOO   XXXXXXXXXXXXXX   OOOOOOOO",
"OOOO   XXXXXXXXXXXXXX   OOOOOOOO",
"OOOO   XXXXXXXXXXXXXX   OOOOOOOO",
"OOOOOOO      XXXXXXXX   OOOOOOOO",
"OOOOOOO      XXXXXXXX   OOOOOOOO",
"OOOOOOO      XXXXXXXX   OOOOOOOO",
"OOOOOOOOOO   XXXXXXXX   OOOOOOOO",
"OOOOOOOOOO   XXXXXXXX   OOOOOOOO",
"OOOOOOOOOO   XXXXXXXX   OOOOOOOO",
"OOOOOOOOOO   XXXXXXXX   OOOOOOOO",
"OOOOOOOOOO   XXXXXXXX   OOOOOOOO",
"OOOO         XXXXXXXX      OOOOO",
"OOOO         XXXXXXXX      OOOOO",
"OOOO         XXXXXXXX      OOOOO",
"O   .......................   OO",
"O   .......................   OO",
"O   .......................   OO",
"O   .......................   OO",
"O   .......................   OO",
"O   .......................   OO",
"O                             OO",
"O                             OO",
"O                             OO",
"OOOO                       OOOOO",
"OOOO                       OOOOO",
"OOOOOOOOOOOOOOOOOOOOOOOOOOOOOOOO"
};
