/* XPM */
static char *result[] = {
/* columns rows colors chars-per-pixel */
"32 32 5 1 ",
"  c #33323D",
". c #D4645A",
"X c #DD8F61",
"o c #F0C088",
"O c None",
/* pixels */
"OOOOOOOOOOOOOOOOOOOOOOOOOOOOOOOO",
"OOOO         OOOOO         OOOOO",
"OOOO         OOOOO         OOOOO",
"O   ooooooooo     ooooooooo   OO",
"O   ooooooooo     ooooooooo   OO",
"O   ooooooooo     ooooooooo   OO",
"O   XXXXXXXXX     XXXXXXXXX   OO",
"O   XXXXXXXXX     XXXXXXXXX   OO",
"O   XXXXXXXXX     XXXXXXXXX   OO",
"O   XXXXXXXXX     XXXXXXXXX   OO",
"O   XXXXXXXXX     XXXXXXXXX   OO",
"O   XXXXXXXXX     XXXXXXXXX   OO",
"O   XXXXXXXXX     XXXXXXXXX   OO",
"O   XXXXXXXXX     XXXXXXXXX   OO",
"O   XXXXXXXXX     XXXXXXXXX   OO",
"O   XXXXXXXXXXXXXXXXXXXXXXX   OO",
"O   XXXXXXXXXXXXXXXXXXXXXXX   OO",
"O   XXXXXXXXXXXXXXXXXXXXXXX   OO",
"O   XXXXXXXXXXXXXXXXXXXXXXX   OO",
"O   XXXXXXXXXXXXXXXXXXXXXXX   OO",
"OOOO              .........   OO",
"OOOO              .........   OO",
"OOOO              .........   OO",
"OOOOOOOOOOOOOOO   .........   OO",
"OOOOOOOOOOOOOOO   .........   OO",
"OOOOOOOOOOOOOOO   .........   OO",
"OOOOOOOOOOOOOOO               OO",
"OOOOOOOOOOOOOOO               OO",
"OOOOOOOOOOOOOOO               OO",
"OOOOOOOOOOOOOOOOOO         OOOOO",
"OOOOOOOOOOOOOOOOOO         OOOOO",
"OOOOOOOOOOOOOOOOOOOOOOOOOOOOOOOO"
};
