/* XPM */
static char *result[] = {
/* columns rows colors chars-per-pixel */
"32 32 5 1 ",
"  c #33323D",
". c #D4645A",
"X c #DD8F61",
"o c #F0C088",
"O c None",
/* pixels */
"OOOOOOOOOOOOOOOOOOOOOOOOOOOOOOOO",
"OOOO                       OOOOO",
"OOOO                       OOOOO",
"O   ooooooooooooooooooooooo   OO",
"O   ooooooooooooooooooooooo   OO",
"O   ooooooooooooooooooooooo   OO",
"O   XXXXXXXXXXXXXXXXXXXXXXX   OO",
"O   XXXXXXXXXXXXXXXXXXXXXXX   OO",
"O   XXXXXXXXXXXXXXXXXXXXXXX   OO",
"O   XXXXXX           XXXXXX   OO",
"O   XXXXXX           XXXXXX   OO",
"O   XXXXXX           XXXXXX   OO",
"O   XXXXXX           XXXXXX   OO",
"O   XXXXXX           XXXXXX   OO",
"O   XXXXXX           XXXXXX   OO",
"O   XXXXXXXXXXXXXXXXXXXXXXX   OO",
"O   XXXXXXXXXXXXXXXXXXXXXXX   OO",
"O   XXXXXX           XXXXXX   OO",
"O   XXXXXX           XXXXXX   OO",
"O   XXXXXX           XXXXXX   OO",
"O   ......           ......   OO",
"O   ......           ......   OO",
"O   ......           ......   OO",
"O   .......................   OO",
"O   .......................   OO",
"O   .......................   OO",
"O                             OO",
"O                             OO",
"O                             OO",
"OOOO                       OOOOO",
"OOOO                       OOOOO",
"OOOOOOOOOOOOOOOOOOOOOOOOOOOOOOOO"
};
