/* XPM */
static char *result[] = {
/* columns rows colors chars-per-pixel */
"32 32 9 1 ",
"  c #33323D",
". c #315B5D",
"X c #407769",
"o c #833F4C",
"O c #985252",
"+ c #AE7764",
"@ c #639D6D",
"# c #92C191",
"$ c None",
/* pixels */
"$$                              ",
"$ @@@@@@@@@@@@@#@@@@@@@@@@@@@@@@",
"$ @@@@@  @@@XX  X@X@@@@@@@@@@@@@",
"$  XX@@  @@@@@@@@@@@@@@@@@@@@@@@",
"$ @@@@@XX@@@@@@@@@@@@@@@@@@@@@@@",
"$       .  . ...................",
"$ XXXXXXXXXXXXXXXXXXXXXXXXXXXXXX",
"$$                              ",
"$$$$$ XXXX OOOOOOOOOOOOOOOOOOOOO",
"$$$$$ XXXX OOOOOOOOOOOOOOOOOOOOO",
"$$$$$ @@@@ OO+++++++++++++++++++",
"$$$$$ @@@@ O++++++++++++++++++++",
"$$$$$ @@@@ O+O+OooO+++++++++++++",
"$$$$$ @@X@ O++++++++++++++++++++",
"$$$$$ @@ @ O++++++++++++++++++++",
"$$$$$ @@ @ O++++++++++++++++++++",
"$$$$$ @@X@   o oooooooooOOOooooo",
"$$$$$ @@@@ O++++++++++++++++++++",
"$$$$$ @@@@ O++++++++++++++++++++",
"$$$$$ @@@@ O++++++++++++++++++++",
"$$$$$ @@@@ O++++++++++++++++++++",
"$$$$$ @@@@ O++++++++++++++++++++",
"$$$$$ @@@@ O++++++++++++++++++++",
"$$$$$ @@@@ O++++++++++++++++++++",
"$$                              ",
"$ @@@@@@@@@@@@@@@@@@@@@@@@@@@@@@",
"$  X@X@  @@@@@##@@@@@@@@@@@@@@@@",
"$ @@@@@  @@@@XX  X@@@@@@@@@@@@@@",
"$ @@@@@XX@@@@@@@@@@@@@@@@@@@@@@@",
"$            .  .. .............",
"$ XXXXXXXXXXXXXXXXXXXXXXXXXXXXXX",
"$$                              "
};
