/* XPM */
static char *result[] = {
/* columns rows colors chars-per-pixel */
"32 32 8 1 ",
"  c #33323D",
". c #315B5D",
"X c #407769",
"o c #833F4C",
"O c #985252",
"+ c #AE7764",
"@ c #639D6D",
"# c #92C191",
/* pixels */
"                                ",
"@@@@@@@@@@@@@@@@@@@@@@@@@@@@@@@@",
"@@@@@@@@@@@@@@@@@@@#@##@@@@@@@@@",
"@@@@@@@@@@@@@@@XX X   X@X@@@@@@@",
"@@@@@@@@@@@@@@@@@@@@@@@@@@@@@@@@",
"....      .  ........  .........",
"XXXXXXXXXXXXXXXXXXXXXXXXXXXXXXXX",
"                                ",
"OOOOOOOOOOOOOOOOOOOOOOOOOOOOOOOO",
"OOOOOOOOOOOOOOOOOOOOOOOOOOOOOOOO",
"++++++++++++++++++++++++++++++++",
"++++++++++++++++++++++++++++++++",
"++++++++++++++++++++O+OooO+O++++",
"++++++++++++++++++++++++++++++++",
"++++++++++++++++++++++++++++++++",
"++++++++++++++++++++++++++++++++",
"ooooooooooooOoOOOOoooooooooooooo",
"++++++++++++++++++++++++++++++++",
"++++++++++++++++++++++++++++++++",
"++++++++++++++++++++++++++++++++",
"++++++++++++++++++++++++++++++++",
"++++++++++++++++++++++++++++++++",
"++++++++++++++++++++++++++++++++",
"++++++++++++++++++++++++++++++++",
"                                ",
"@@@@@@@@@@@@@@@@@@@@@@@@@@@@@@@@",
"@@@@@@@@@@@##@#@@@@@@@@@@@@@@@@@",
"@@@@@@@@@X@X   X XX@@@@@@@@@@@@@",
"@@@@@@@@@@@@@@@@@@@@@@@@@@@@@@@@",
"...........  ........  .      ..",
"XXXXXXXXXXXXXXXXXXXXXXXXXXXXXXXX",
"                                "
};
