/* XPM */
static char *result[] = {
/* columns rows colors chars-per-pixel */
"32 32 9 1 ",
"  c #33323D",
". c #315B5D",
"X c #407769",
"o c #833F4C",
"O c #985252",
"+ c #AE7764",
"@ c #639D6D",
"# c #92C191",
"$ c None",
/* pixels */
"                              $$",
"@@@@@@@@@@@@@@@@@@@@@@@@@@@@@@ $",
"@@@@@@@@@@@@@@@@##@@@@@  @X@X  $",
"@@@@@@@@@@@@@@X  XX@@@@  @@@@@ $",
"@@@@@@@@@@@@@@@@@@@@@@@XX@@@@@ $",
"............. ..  .            $",
"XXXXXXXXXXXXXXXXXXXXXXXXXXXXXX $",
"                              $$",
"OOOOOOOOOOOOOOOOOOOOO XXXX $$$$$",
"OOOOOOOOOOOOOOOOOOOOO XXXX $$$$$",
"+++++++++++++++++++OO @@@@ $$$$$",
"++++++++++++++++++++O @@@@ $$$$$",
"++++++++++++++++++++O @@@@ $$$$$",
"++++++++++++++++++++O @@@@ $$$$$",
"++++++++++++++++++++O @@@@ $$$$$",
"++++++++++++++++++++O @@@@ $$$$$",
"oooooOOoooooooooooo   @@X@ $$$$$",
"++++++++++++++++++++O @@X@ $$$$$",
"++++++++++++++++++++O @@ @ $$$$$",
"++++++++++++++++++++O @@ @ $$$$$",
"+++++++++OoO++++++++O @@X@ $$$$$",
"++++++++++++++++++++O @@@@ $$$$$",
"++++++++++OoOO+O++++O @@X@ $$$$$",
"++++++++++++++++++++O @@@@ $$$$$",
"                              $$",
"@@@@@@@@@@@@@@@@#@@@@@@@@@@@@@ $",
"@@@@@@@@@@@@@X@X  XX@@@  @@@@@ $",
"@@@@@@@@@@@@@@@@@@@@@@@  @@XX  $",
"@@@@@@@@@@@@@@@@@@@@@@@XX@@@@@ $",
"................... .  .       $",
"XXXXXXXXXXXXXXXXXXXXXXXXXXXXXX $",
"                              $$"
};
