/* XPM */
static char *result[] = {
/* columns rows colors chars-per-pixel */
"32 32 6 1 ",
"  c #211F30",
". c #BA570B",
"X c #CE8B16",
"o c #E1CA33",
"O c #F7EC8A",
"+ c #F8F8F8",
/* pixels */
"                                ",
" oOOOOOOOOOOO++OO+OOOOOOOOOOOO+ ",
" XooooooooooOOooOoooooooooooooO ",
" Xo.XooooooOOooOooooooooooo.XoO ",
" Xo..oooooOOooOoooooooooooo..oO ",
" XoooooooOOooOooooooooooooooooO ",
" XooooooOOooOoooooooooooooooooO ",
" XoooooOOooOooooooooooooooooooO ",
" XooooOOooOoooooooooooooooooooO ",
" XoooOOooOooooooooooooooooooooO ",
" XooOOooOoXXXXXXXXXXXXoooooooo+ ",
" XoOOooOooO..........XoooooooO+ ",
" XOOooOoooOXXXXXXXXX.XooooooOO+ ",
" XoooOooooOXXXXXXXXX.XoooooOOO+ ",
" XooOoooooOXXXXXXXXX.XooooOOOOO ",
" XoOooooooOXXXXXXXXX.XoooOOOOoO ",
" XOoooooooOXXXXXXXXX.XooOOOOoo+ ",
" XooooooooOXXXXXXXXX.XoOOOOooO+ ",
" XooooooooOXXXXXXXXX.XOOOOooOOO ",
" XooooooooOXXXXXXXXX.oOOOooOOoO ",
" XooooooooOXXXXXXXXX.oOOooOOooO ",
" XooooooooOOOOOOOOO++oOooOOoooO ",
" XooooooooooooooooOOOOooOOooooO ",
" XoooooooooooooooOOOOooOOoooooO ",
" XooooooooooooooOOOOooOOooooooO ",
" XoooooooooooooOOOOooOOoooooooO ",
" XooooooooooooOOOOooOOooooooooO ",
" Xo.XooooooooOOOOooOOoooooo.XoO ",
" Xo..oooooooOOOOooOOooooooo..oO ",
" XoooooooooOOOOooOOoooooooooooO ",
" .XXXXXXXXooooXXooXXXXXXXXXXXXo ",
"                                "
};
