/* XPM */
static char *result[] = {
/* columns rows colors chars-per-pixel */
"32 32 10 1 ",
"  c #121E23",
". c #334554",
"X c #6F5E58",
"o c #416A77",
"O c #9A8376",
"+ c #5A9392",
"@ c #6CA793",
"# c #76B09C",
"$ c #BAAD97",
"% c #D8D0B7",
/* pixels */
"                                ",
" %%$$%%$ O$O$%% %%%%O$O $%%$$%% ",
" %XOO$O$XO$O$$$O$$$$O$OX$O$OOX% ",
" %X$X$O$XOOX$$OX$$$$XOOX$O$X$X% ",
" $ $XOX$ O XOOOX OOOX O $XOX$ $ ",
" $ O OXO         XX     OXO O $ ",
" O$O  OO  XXOOXXXXXXXX  OO  O$O ",
"  OOOOO .. ...        .. OOOOO  ",
"                                ",
"  .ooo..   .....   ooo......oo  ",
" ooo..... ....... ...........oo ",
" .o@++oo. ..oo++++.++oooo++@@+o ",
" o++ooooo..ooooo+.ooooooooooo+@ ",
" ++ooooooo.oooooo.ooooooooooo++ ",
" +@ooooooo .oooo. oooooooooooo+ ",
" +@ooooooo  .....   oooooo....o ",
" +@ooooooo o   ......o..   ...  ",
" +@ooooooo +oooo ..ooooo...oooo ",
" ++ooooooo+++@@+ .++@@++o oo+@@ ",
" ++oooooo.++ooo ..oooooo+ o+o++ ",
" o+oooooo.++ooo +ooooooo. o.o++ ",
" ooooo... .oooo.+ooooooo. +.o++ ",
"  .......  .....+oooooooo +oo#+ ",
"      ..       .+oooooooo.+oo#+ ",
"  +ooooooooooo  +oooooooo.+oo#+ ",
" +++oooooo..++o +oooooooo.+oo++ ",
" +@ooo+@@+o++oo..oooooooo..oo++ ",
" +@ooooooooo+oo..oooooooo. oo++ ",
" o+ooooooooo+oo. .oooooo.. o++o ",
" oo.........o... ........ ...oo ",
" .o............ ........   .oo. ",
"                                "
};
