/* XPM */
static char *result[] = {
/* columns rows colors chars-per-pixel */
"32 32 11 1 ",
"  c #33323D",
". c #D06C63",
"X c #CD897C",
"o c #DE9970",
"O c #EED878",
"+ c #68538A",
"@ c #7B7BAB",
"# c #EEBC9D",
"$ c #EAC088",
"% c white",
"& c None",
/* pixels */
"&&&&&&&&&&&&&&&&&&&&&&&&&&&&&&&&",
"&&&&&&&&&&&&&&&&&&&&&&&&&&&&&&&&",
"&&&&&&&&&&&&&&&&&&&&&&&&&&&&&&&&",
"&&&&&&&&&&&          &&&&&&&&&&&",
"&&&&&&&&&& @@@@@@@@++ &&&&&&&&&&",
"&&&&&&&&& @@       @++ &&&&&&&&&",
"&&&&&&&&& @ %%%%%%% ++ &&&&&&&&&",
"&&&&&&&&& @ %  %  % ++ &&&&&&&&&",
"&&&&&&&&& @ %  %  % ++ &&&&&&&&&",
"&&&&&&&&& @@ %%%%% @++ &&&&&&&&&",
"&&&&&&&&& @@ %+%+% @++ &&&&&&&&&",
"&&&&&&&&& @@@@@@@@@@++ &&&&&&&&&",
"&&&&   && @@@@@@@@@@++ &&   &&&&",
"&&&& @@  ++@+@@@@@+++    @@ &&&&",
"&&&& @ @@@@@@@@@@@@@@@@@@ @ &&&&",
"&&&& @@@                @@@ &&&&",
"&&&&&       .....          &&&&&",
"&&&&&&&& X oooooo. %% X &&&&&&&&",
"&&&&&&&& # oo$$oo.    X &&&&&&&&",
"&&&&&&&& ## oooo. % % X &&&&&&&&",
"&&&&&&&& ###     X   XX  &&&&&&&",
"&&&&&&&   ########XXXX .. &&&&&&",
"&&&&&& . .            .ooo &&&&&",
"&&&&&& . o.............ooo &&&&&",
"&&&&&&   oooo    ooo...    &&&&&",
"&&&&&& X     %OOO      ### &&&&&",
"&&&&&&&  @@@@+++++@@@++   &&&&&&",
"&&&&&&&& @@         @++ &&&&&&&&",
"&&&&&&&& +++ &&&&&& ++  &&&&&&&&",
"&&&&&&&&& XX &&&&&&& XX &&&&&&&&",
"&&&&&&&&&&   &&&&&&&&   &&&&&&&&",
"&&&&&&&&&&&&&&&&&&&&&&&&&&&&&&&&"
};
