/* XPM */
static char *_fce3d52037c4e10e2006171465d5bc38c1elzBDSPAkiNhp[] = {
/* columns rows colors chars-per-pixel */
"32 32 11 1 ",
"  c None",
". c #33323D",
"X c #D06C63",
"o c #CD897C",
"O c #DE9970",
"+ c #EED878",
"@ c #68538A",
"# c #7B7BAB",
"$ c #EEBC9D",
"% c #EAC088",
"& c white",
/* pixels */
"                                ",
"           ..........           ",
"          .@@########.          ",
"         .@.......##.#.         ",
"         ..&&&&&&&.#.#.         ",
"         ..&..&..&.#.#.         ",
"         ..&..&..&.#.#.         ",
"         .@.&&&&&.##.#.         ",
"         .@.&@&@&.##.#.         ",
"      ....@@##########.....     ",
"     .@@..@@@#########.##.#.    ",
"     .@.....@@@####@#@@.#.#.    ",
"     .###################.#.    ",
"      .....................     ",
"        ...XXXXXXX.&&...        ",
"        .o.XOO%%OO....o.        ",
"        .oo.XOOOO.&.&.$.        ",
"        .ooo.....o...$$.        ",
"       .O.oooo$$$$$$$$..        ",
"      .OOO............X....     ",
"      .OOO.$.XXXXXXXXXO.X.$.    ",
"      .XOO.$.XXOO....OO.X.$.    ",
"       .XX.$.....+++&...X.$.    ",
"        ....####@@@@@##....     ",
"        .@@###........##.       ",
"        .@@##.      .@@@.       ",
"        ..@@.       .oo.        ",
"        .oo.        ...         ",
"        ...                     ",
"                                ",
"                                ",
"                                "
};
