/* XPM */
static char *_7a4f0e0d3584008cef9f9fd2aa4016d22zAmfCb326kW3oX[] = {
/* columns rows colors chars-per-pixel */
"32 32 11 1 ",
"  c None",
". c #33323D",
"X c #D06C63",
"o c #CD897C",
"O c #DE9970",
"+ c #EED878",
"@ c #68538A",
"# c #7B7BAB",
"$ c #EEBC9D",
"% c #EAC088",
"& c white",
/* pixels */
"                                ",
"                                ",
"          ............          ",
"         .@@##########.         ",
"        .@.........##.#.        ",
"        ..&&&&&&&&&.#.#.        ",
"        ..&...&...&.#.#.        ",
"        ..&...&...&.#.#.        ",
"        .@.&&&&&&&.##.#.        ",
"        .@.&@@&@@&.##.#.        ",
"     ....@@############.....    ",
"    .@@..@@@###########.##.#.   ",
"    .@.....@@@@#####@#@@.#.#.   ",
"    .#####################.#.   ",
"     .......................    ",
"       ...XXXXXXXXX.&&...       ",
"       .oo.XO%%%%O.&.&.o.       ",
"       .ooo.......o...$$.       ",
"      .O.oooo$$$$$$$$$$..       ",
"     .OOO..............X....    ",
"     .XOO.$.XXXX......XO.X.$.   ",
"      .XX.$.....++++&&...X.$.   ",
"       ....####@@@@@@@##....    ",
"       .@@###..........##.      ",
"       .@@##.        .@@@.      ",
"       ..@@.         .oo.       ",
"       .oo.          ...        ",
"       ...                      ",
"                                ",
"                                ",
"                                ",
"                                "
};
