/* XPM */
static char *_b1ce90327bf444e8d202ddb455acfe5dXnsc3g4ljIe1I4z[] = {
/* columns rows colors chars-per-pixel */
"32 32 2 1 ",
"  c None",
". c white",
/* pixels */
"                                ",
"           ..........           ",
"          ............          ",
"         ..............         ",
"         ..............         ",
"         ..............         ",
"         ..............         ",
"         ..............         ",
"         ..............         ",
"      .....................     ",
"     .......................    ",
"     .......................    ",
"     .......................    ",
"      .....................     ",
"        ................        ",
"        ................        ",
"        ................        ",
"        ................        ",
"       .................        ",
"      .....................     ",
"      ......................    ",
"      ......................    ",
"       .....................    ",
"        ...................     ",
"        .................       ",
"        ......      .....       ",
"        .....       ....        ",
"        ....        ...         ",
"        ...                     ",
"                                ",
"                                ",
"                                "
};
