/* XPM */
static char *_3dae6769e9f4f8b8ef242350901dda3uBCyY9tVpevCX450[] = {
/* columns rows colors chars-per-pixel */
"32 32 11 1 ",
"  c None",
". c #33323D",
"X c #D06C63",
"o c #CD897C",
"O c #DE9970",
"+ c #EED878",
"@ c #68538A",
"# c #7B7BAB",
"$ c #EEBC9D",
"% c #EAC088",
"& c white",
/* pixels */
"                                ",
"                                ",
"                                ",
"                                ",
"          ............          ",
"         .@@.........#.         ",
"        .@@.&&&&&&&&&.#.        ",
"        .@@.&...&...&.#.        ",
"        .@@.&...&...&.#.        ",
"        .@@#.&&&&&&&.##.        ",
"        .@@#.&@@&@@&.##.        ",
"    ..  .@@############.  ..    ",
"   .##....@@@#######@#@@..##.   ",
"   .#.####################.#.   ",
"   .###..................###.   ",
"   ...........XXXXXXX........   ",
"   .@@..o.&&.XOOOOOOOO.o..@@.   ",
"    ....o....XOO%%%%OO.$....    ",
"       .o.&.&.XOOOOOO.$$...     ",
"       .oo...o.......$$$.o$.    ",
"      ..oo$$$$$$$$$$$$$o..$.    ",
"     .OX.oooooooooooooo..X..    ",
"    .OOOX..............X..      ",
"   .$..X.XXXXX......XXX..       ",
"   .$$$.......+++++&...##.      ",
"    ....@@###@@@@@@@#####.      ",
"       .@@##...........@#.      ",
"       .@##.         .oo.       ",
"       ..@@.         ...        ",
"       .oo.                     ",
"       ...                      ",
"                                "
};
