/* XPM */
static char *e08df845caa14161f97fc51ec65e54b9dZiUWAtDxVwTy0V0[] = {
/* columns rows colors chars-per-pixel */
"32 32 11 1 ",
"  c None",
". c #33323D",
"X c #D06C63",
"o c #CD897C",
"O c #DE9970",
"+ c #EED878",
"@ c #68538A",
"# c #7B7BAB",
"$ c #EEBC9D",
"% c #EAC088",
"& c white",
/* pixels */
"           .@@.....#.           ",
"          .@@.&&&&&.#.          ",
"          .@@.&.&.&.#.          ",
"          .@@.&.&.&.#.          ",
"          .@@#.&&&.##.          ",
"          .@@#.&@&.##.          ",
"      ..  .@@########.  ..      ",
"     .##....@@@###@#@@..##.     ",
"     .#.################.#.     ",
"     .###..............###.     ",
"     ...........XXX........     ",
"     .@@..oo...XOOOO.o..@@.     ",
"      ....o.&&.XOOOO.$....      ",
"         .o....XO%%O.$.         ",
"         .o....XOOOO.$.         ",
"         .o.&.&.XOO.$$...       ",
"         .oo...o...$$$.o$.      ",
"        ..oo$$$$$$$$$o..$.      ",
"       .OX.oooooooooo..X..      ",
"      .OOOX..........X.X.       ",
"      .OOOXXXXXXXXXXXO.X.       ",
"     ..OOOXXXOOOOOOOOO..        ",
"     .$..X.XXOOO..OOO..         ",
"     .$$$.......+&...##.        ",
"      ....@@###@@@#####.        ",
"         .@@##.......@#.        ",
"         .@##.     .oo.         ",
"         ..@@.     ...          ",
"         .oo.                   ",
"         ...                    ",
"                                ",
"                                "
};
