/* XPM */
static char *c00321d0abc848d593198b62f4760edb6ojk1BplPqEK3PJd[] = {
/* columns rows colors chars-per-pixel */
"32 32 11 1 ",
"  c None",
". c #33323D",
"X c #D06C63",
"o c #CD897C",
"O c #DE9970",
"+ c #EED878",
"@ c #68538A",
"# c #7B7BAB",
"$ c #EEBC9D",
"% c #EAC088",
"& c white",
/* pixels */
"           ..........           ",
"          .@@.......#.          ",
"         .@@.&&&&&&&.#.         ",
"         .@@.&..&..&.#.         ",
"         .@@.&..&..&.#.         ",
"         .@@#.&&&&&.##.         ",
"         .@@#.&@&@&.##.         ",
"     ..  .@@##########.  ..     ",
"    .##....@@@#####@#@@..##.    ",
"    .#.##################.#.    ",
"    .###................###.    ",
"    ...........XXXXX........    ",
"    .@@..oo...XOOOOOO.o..@@.    ",
"     ....o.&&.XOOOOOO.$....     ",
"        .o....XOO%%OO.$.        ",
"        .o.&.&.XOOOO.$$...      ",
"        .oo...o.....$$$.o$.     ",
"       ..oo$$$$$$$$$$$o..$.     ",
"      .OX.oooooooooooo..X..     ",
"     .OOOX............X.X.      ",
"    ..OOOXXXXXXXXXXXXXO..       ",
"    .$..X.XXOOO....OOO..        ",
"    .$$$.......+++&...##.       ",
"     ....@@###@@@@@#####.       ",
"        .@@##.........@#.       ",
"        .@##.       .oo.        ",
"        ..@@.       ...         ",
"        .oo.                    ",
"        ...                     ",
"                                ",
"                                ",
"                                "
};
