/* XPM */
static char *_707c189c3dc445ec1d70eebc378ff2aOl17ZzGgprlPIUkV[] = {
/* columns rows colors chars-per-pixel */
"32 32 11 1 ",
"  c None",
". c #33323D",
"X c #D06C63",
"o c #CD897C",
"O c #DE9970",
"+ c #EED878",
"@ c #68538A",
"# c #7B7BAB",
"$ c #EEBC9D",
"% c #EAC088",
"& c white",
/* pixels */
"            ........            ",
"           .@@######.           ",
"          .@.....##.#.          ",
"          ..&&&&&.#.#.          ",
"          ..&.&.&.#.#.          ",
"          ..&.&.&.#.#.          ",
"          .@.&&&.##.#.          ",
"          .@.&@&.##.#.          ",
"       ....@@########.....      ",
"      .@@..@@@#######.##.#.     ",
"      .@.....@@@##@#@@.#.#.     ",
"      .#################.#.     ",
"       ...................      ",
"         ...XXXXX.&&...         ",
"         .o.XOOOO....o.         ",
"         .o.XO%%O....$.         ",
"         .oo.XOO.&.&.$.         ",
"         .ooo...o...$$.         ",
"        .O.oooo$$$$$$..         ",
"       .OOO..........X....      ",
"       .OOO.$.XXXXXXXO.X.$.     ",
"       .OOO.$.XXOOOOOO.X.$.     ",
"       .XOO.$.XXO...OO.X.$.     ",
"        .XX.$....++&...X.$.     ",
"         ....####@@@##....      ",
"         .@@###......##.        ",
"         .@@##.    .@@@.        ",
"         ..@@.     .oo.         ",
"         .oo.      ...          ",
"         ...                    ",
"                                ",
"                                "
};
