/* XPM */
static char *_2e15710e79c453b9b5378dbfd2c2b52xZ5cwVNyDcLPTuba[] = {
/* columns rows colors chars-per-pixel */
"32 32 11 1 ",
"  c None",
". c #33323D",
"X c #D06C63",
"o c #CD897C",
"O c #DE9970",
"+ c #EED878",
"@ c #68538A",
"# c #7B7BAB",
"$ c #EEBC9D",
"% c #EAC088",
"& c white",
/* pixels */
"                                ",
"                                ",
"           ..........           ",
"          .@#########.          ",
"         .@..........#.         ",
"         .@@@#########.         ",
"         .@@#.......##.         ",
"         .@@.&&&&&&&.#.         ",
"         .@@.&..&..&.#.         ",
"     ... .@@.&..&..&.#. ...     ",
"    .##@..@@#.&&&&&.##..@##.    ",
"    ...@@.@@#.&@&@&.##.@@...    ",
"    .##...@@##########...##.    ",
"    .#.....@@@#####@#@@...#.    ",
"    .######################.    ",
"     ......................     ",
"        ...&&.XXXXXXX...        ",
"      ...o....XOO%%OO.o..       ",
"    ..OO.o.&.&.XOOOO.$$.X..     ",
"   .$.OO.oo...o.....$$$.X.$.    ",
"   .$.OOX.oooo$$$$$$$$..X.$.    ",
"   .$$.OOX............X..o$.    ",
"    ....XXXXXXXXXXXXXXO....     ",
"        ..XXOOO....OOOO.        ",
"        .@.....+++&.....        ",
"        .@@###@@@@@####.        ",
"         .@@##.......##.        ",
"          .oo.     .@@#.        ",
"           ...      .oo.        ",
"                     ...        ",
"                                ",
"                                "
};
