/* XPM */
static char *_a7ee2298bf748b6e0aef27f54ba32feJwKA6iKd8HWt0IKS[] = {
/* columns rows colors chars-per-pixel */
"32 32 7 1 ",
"  c #6E5967",
". c #926475",
"X c #AD707B",
"o c #B77F83",
"O c #C39490",
"+ c #D1B1A5",
"@ c #DCCABE",
/* pixels */
"                                ",
"      .XXXXoOOOOOOOOoXXXX.      ",
"      XXXXXOOOOOOOOOOXXXXX      ",
"     .XXXXXOOOOOOOOOOXXXXX.     ",
".XXXXXXXXXXOOOOOOOOOOXXXXXXXXX. ",
"XXXXXXXXXXXOOOOOOOOOOXXXXXXXXXX ",
"XXXXXXXXXXXOOOOOOOOOOXXXXXXXXXX ",
".XXXXXXXXXXoOOOOOOOOoXXXXXXXXX. ",
"                                ",
"XXXXXXXXXXoOOOX XOOOOoXXXXXXXXXX",
"XXXXXXXXXoOOOOO OOOOOOoXXXXXXXXX",
"OOOOOOOOOOOOOOO OOOOOOOOOOOOOOOO",
"OOOOOOOXXOXO    OOOOOOOOOOOOOOOO",
"OOOOOO+O++OOOOo OOOOOOOOOOOOOOOO",
"OOOOOOOOOOOOOOO OOOOOOOOOOOOOOOO",
"OOOOOOOOOOOOOOX XOOOOOOOOOOOOOOO",
"                                ",
"XOOO+O++@@@+O++OOOOOOOOOOOOOOOX ",
"OOOOOOOOOOOOOOOOOOOOOOOOOOOOOOO ",
"OOOOOOOOOOOOOOOOOOOOOOOOOOOOOOO ",
"OOOOOOOOOOOOOOOOOOOOOOOOOOOOOOo ",
"OOOOOOOOOOOOOOOOOOOOOOXXOXO     ",
"OOOOOOOOOOOOOOOOOOOOOOOO+O++OOO ",
"XOOOOOOOOOOOOOOOOOOOOOOOOOOOOOX ",
"                                ",
"OOOOOOOOOOOOOOX XOOO+O+++@@@++OO",
"OOOOOOOOOOOOOOO OOOOOOOOOOOOOOOO",
"XXXXXXXXXoOOOOO OOOOOOoXXXXXXXXX",
"XXXXXXXXXXoOOOO OOOOOoXXXXXXXXXX",
"XXXXXXXXXXXOOOO OOOOOXXXXXXXXXXX",
"   .XXXXXXXOOOO OOOOOXXXXXXX.   ",
"    .XXXXXXoOOX XOOOoXXXXXXX    "
};
