/* XPM */
static char *result[] = {
/* columns rows colors chars-per-pixel */
"32 32 6 1 ",
"  c #656C17",
". c #686F16",
"X c #72751B",
"o c #787B21",
"O c #7F8124",
"+ c #7F8226",
/* pixels */
"XXXXXXXXXXXXXXXXXXXXXXXXXXXooXXX",
"XXXXXXXXXXXXXXXXXXXXXXXXXXX  XXX",
"XXXXXXXXXXXXXXXXXXXXXXXXXXXXXXXX",
"XXXXXX++XXXXX+XXXXXXXXXXXXXXXXXX",
"XXXXXXX+ooXo+XXXXXXXXXXXXXXXXXXX",
"XXXXo++ o oo XXXXXXXXXXXXXXXXXXX",
"XXXXX+oo  oo XXXXXXXXXXXXXXXXXXX",
"XXXXX ooXXo XXXXXXXXXXXXXXXXXXXX",
"XXXXXX oXXXXXXXXXXXXXXXXXXXXXXXX",
"XXXXXXXXXXXXXXXXXXXXXXXXXXXXXXXX",
"XXXXXXXXXXXXXXXXXXXXXXXXXXXXXXXX",
"XXXXXXXXXXXXXXXXXXXXXXXXXXXXXXXX",
"XXXXXXXXXXXXXXXXXXXXXXXXXXXXXXXX",
"XXXXXXXXXXXXXXXXXXXXXXXXXXXXXXXX",
"XXXXXXXXXXXXXXXXXXXXXXXXXXXXXXXX",
"XXXXXXXXXXXXXXXXXXXXXXXXXXXXXXXX",
"XXXXXXXXXXXXXXXXXXXXXXXXXXXXXXXX",
"XXXXXXXXXXXXXXXXXXXXXXXXXXXXXXXX",
"XXXooXXXXXXXXXXXXXXXXXXXXXXXXXXX",
"XXX.OOXXXXXXXXXXXXXXXXXXXXXXXXXX",
"XXXXOooXXXoXXXXXXXXXXXXXXXXXXXXX",
"XXXX.ooXOoXXXXXXXXXXXXXXXXXXXXXX",
"XXXX.oooOOXXXXXXXXXXXXOXXXXXXXXX",
"XXXXX..oo.XXXXXXXXXXXooXXOOoXXXX",
"XXXXXXX..XXXXXXXXXoXXo.XooOXXXXX",
"XXXXXXXXXXXXXXXXXXXOo.XXoo.XXXXX",
"XXXXXXXXXXXXXXXXXXXooXXoo.oOXXXX",
"XXXXXXXXXXXXXXXXXXXX.XXo.oo.XXXX",
"XXXXXXXXXXXXXXXXXXXXXXX..o.XXXXX",
"XXXXXXXXXXXXXXXXXXXXXXXXXXXXXXXX",
"XXXXXXXXXXXXXXOOoXXXXXXXXXXXXXXX",
"XXXXXXXXXXXXXXXOooXXXXXXXXXXXXXX"
};
