/* XPM */
static char *result[] = {
/* columns rows colors chars-per-pixel */
"32 32 72 1 ",
"  c #5D4217",
". c #5E4317",
"X c #5E4419",
"o c #5E4519",
"O c #5E4619",
"+ c #5F4619",
"@ c #61471A",
"# c #624B19",
"$ c #634B19",
"% c #61491A",
"& c #634B1A",
"* c #634C1A",
"= c #654C19",
"- c #644D19",
"; c #654D19",
": c #664E19",
"> c #644C1A",
", c #644D1A",
"< c #654E1A",
"1 c #664E1A",
"2 c #664F1A",
"3 c #664E1B",
"4 c #664F1B",
"5 c #66501A",
"6 c #67501A",
"7 c #656819",
"8 c #666819",
"9 c #676819",
"0 c #666919",
"q c #676919",
"w c #676A19",
"e c #686919",
"r c #686A19",
"t c #696A19",
"y c #6D6E1B",
"u c #6D6F1B",
"i c #6E701B",
"p c #6F711B",
"a c #70721C",
"s c #71721C",
"d c #71731C",
"f c #70721D",
"g c #71731D",
"h c #72721C",
"j c #72731C",
"k c #72741C",
"l c #76761F",
"z c #76771F",
"x c #757620",
"c c #767620",
"v c #7A7927",
"b c #7D7B27",
"n c #7F7E24",
"m c #7F7E25",
"M c #7D7C27",
"N c #7D7A29",
"B c #7F7C28",
"V c #807E25",
"C c #817E29",
"Z c #828026",
"A c #838126",
"S c #848126",
"D c #858226",
"F c #858326",
"G c #858227",
"H c #898431",
"J c #898531",
"K c #898432",
"L c #898532",
"P c #8A8532",
"I c #8B8632",
"U c None",
/* pixels */
"UUUUUUUUUUUUUUUUUUUUUUUUUUUUUUUU",
"UUUUUUUUUUUUUUUUUUUUUUUUUUUUUUUU",
"UUUUUUUUUUUUUUUUUUUUUUUUUUUUUUUU",
"UUUUUUUUUUUUUUUUUUUUUUUUUUUUUUUU",
"UUUUUUUUUUUUUUUUUUUUUUUUUUUUUUUU",
"UUUUUUUUUUUUUUUUUUUUUUUUUUUUUUUU",
"UUUUUUUUUUUUUUUUUUUUUUUUUUUUUUUU",
"UUUUUUUUUUUUUUUUUUUUUUUUUUUUUUUU",
"UUUUUUUUUUUUUUUUUUUUUUUUUUUUUUUU",
"UUUUUUUUUUUUUUUUUUUUUUUUUUUUUUUU",
"UUUUUUUUUUUUUUUUUUUUUUUUUUUUUUUU",
"UUUUUUUUUUUUUUUUUUUUUUUUUUUUUUUU",
"UUUUUUUUUUUUUUUUUUUUUUUUUUUUUUUU",
"UUUUUUUUUUUUUUUUUUUUUUUUUUUUUUUU",
"UUUUUUUUUUUUUUUUUUUUUUUUUUUUUUUU",
"UUUUUUUUUUUUUUUUUUUUUUUUUUUUUUUU",
"UUUUUUUUUUUUUUUUUUUUUUUUUUUUUUUU",
"UUUUUUUUUUUUUUUUUUUUUUUUUUUUUUUU",
"UUUUUUUUUUUUUUUUUUUUUUUUUUUUUUUU",
"UUUUUUUUUUUUUUUUUUUUUUUUUUUUUUUU",
"UUUUUUUUUUUUUUUUUUUUUUUUUUUUUUUU",
"UUUUUUUUUUUUUUUUUUUUUUUUUUUUUUUU",
"UUUUUUUUUUUUUUUUUUUUUUUUUUUUUUUU",
"UUUUUUUUUUUUUUUUUUUUUUUUUUUUUUUU",
"UUUUUUUUUUUUUUUUUU,*UUUUUUUUUUUU",
"UUUUUUUUUUUUU421U1ii*UUUUUUUUUUU",
"UUUUUUU<<<UU4q9e3PLi>UUU@+UUUUUU",
"UUUUUU<yus65wrrAPPPii*U%cxOUUUUU",
"UUUUU;IIIhssrrSIIPPapi&rcx7oUUUU",
"UUUUU:IIIIjjttDIIIaaLKKr087oUUUU",
"UUU=-VIIIIIDDjjDSgfZPJHlMb87X.UU",
"U#$djnmIIIIFGDkDDSAAPPJzCBb8vN U"
};
