/* XPM */
static char *result[] = {
/* columns rows colors chars-per-pixel */
"32 32 6 1 ",
"  c #6E5967",
". c #AD707B",
"X c #B77F83",
"o c #C39490",
"O c #D1B1A5",
"+ c #DCCABE",
/* pixels */
"ooooooooooooooo. .oooOoOO+++OoOO",
"oooooooooooooooo ooooooooooooooo",
"oooooooooooooooo ooooooooooooooo",
"oooooooooooooooX ooooooooooooooo",
"ooooooo..o.o     ooooooooooooooo",
"oooooooooOoOOooo ooooooooooooooo",
"ooooooooooooooo. .oooooooooooooo",
"                                ",
" .oooOoOOO+++OOoooooooooooooooo.",
" ooooooooooooooooooooooooooooooo",
" oooooooooooooooooooo...oo.oo   ",
" oooooooooooooooooooooOoooOOoOoX",
" ooooooooooooooooooooooooooooooo",
" ooooooooooooooooooooooooooooooo",
" .ooooooooooooooooooooooooooooo.",
"                                ",
"ooooooooooooooo. .ooooOOOOOooOoo",
"oooooooooooooooo ooooooooooooooo",
"ooooo.o.....oo   ooooooooooooooo",
"ooooooOoOOOooooX ooooooooooooooo",
"oooooooooooooooo ooooooooooooooo",
"oooooooooooooooo ooooooooooooooo",
"ooooooooooooooo. .oooooooooooooo",
"                                ",
" .oooOoOOOOOoooooOOOooooooooooo.",
" ooooooooooooooooooooooooooooooo",
" ooooooooooooooooooooooo..o.oo  ",
" ooooooooooooooooooooooOoOOooooX",
" ooooooooooooooooooooooooooooooo",
" ooooooooooooooooooooooooooooooo",
" .ooooooooooooooooooooooooooooo.",
"                                "
};
