/* XPM */
static char *result[] = {
/* columns rows colors chars-per-pixel */
"32 32 8 1 ",
"  c #6C5C68",
". c #8C5C6D",
"X c #9E6872",
"o c #B37F7C",
"O c #8590B4",
"+ c #C59F8A",
"@ c #9DB3CA",
"# c white",
/* pixels */
"                                ",
"X. XooooX .XXXXXXXXXX. XooooX .X",
"XX oooooo XXXXXXXXXXXX oooooo XX",
"XX oo+++o ooooooooooXX oo+++o oo",
"XX o+++++ oooo+oooooXX o+++++ oo",
"XX oo  ++ ooX XoooooXX oo  ++ oo",
"XX oo  ++ ooooooooooXX oo  ++ oo",
"XX o+++++ ooooooooooXX o+++++ oo",
"XX o+++++ ooooooooooXX o+++++ oo",
"X. o+++++ XoooooooooX. o+++++ Xo",
"   o+++++  XooXXXoXX   o+++++  X",
"X. o+++++ XoooooooooX. o+++++ Xo",
"XX o+++++ oooooo+oooXX o+++++ oo",
"XX o+++++ ooooXo XooXX o+++++ oo",
"XX o+++++ ooooooooooXX o+++++ oo",
"XX o+++++ ooooooooooXX o+++++ oo",
"XX o+++++ ooooooooooXX o+++++ oo",
"XX o+++++ ooooooooooXX o+++++ oo",
"XX o+++++ ooooooooooXX o+++++ oo",
"X. o+++++ XoooooooooX. o+++++ Xo",
"   o+++++  XXXoXoXXX   o+++++  X",
"X. o+++++ XoooooooooX. o+++++ Xo",
"XX o+++++ ooooooooooXX o+++++ oo",
"XX o+++++ oXXXXXXXXXXX o+++++ oo",
" X oo  ++ oX O    @ XX oo  ++ oo",
"XX oo  ++ oX O@@@## XX oo  ++ oo",
"XX o+++++ ooX      oXX o+++++ oo",
"XX oo+++o ooooooooooXX oo+++o oo",
"XX oooooo XXXXXXXXXXXX oooooo XX",
"X. XooooX .XXXXXXXXXX. XooooX .X",
"                                ",
"oooooooooooooooooooooooooooooooo"
};
