/* XPM */
static char *_60acdebd06d4d65b2490d0123f264a72kFjeHedcmGVqfoq[] = {
/* columns rows colors chars-per-pixel */
"32 32 4 1 ",
"  c None",
". c #740032",
"X c #9D034B",
"o c #DC0066",
/* pixels */
"                                ",
"                                ",
"                                ",
"                                ",
"                                ",
"                                ",
"                                ",
"                                ",
"                                ",
"                                ",
"                                ",
"                                ",
"                                ",
"                                ",
"      ...XXXXX.XXXXXXXXXX.      ",
"     .X..XoXX...XXooXXXXXX.     ",
"     .XXXXooXX.XXXoo..XXXX.     ",
"     .XXXXooXXXXXXXX..XXoo.     ",
"     .XXXXXXXXXXXXXXXXXooo.     ",
"     .XooXXX..ooXX.XXXXooo.     ",
"     .XoooX...ooo..XX...oo.     ",
"     ..ooo....ooo.XXX...XX.     ",
"     ..ooX...XXXXooXX..XXX.     ",
"     ...XXXXXXXXXooooXXXX.      ",
"      .XXXXXooX..ooooooXX.      ",
"      ...Xooo....XoooooX..      ",
"      ....oooo...XXoooXX..      ",
"      .....ooo....ooo.....      ",
"      oo..oooo....oo....o.      ",
"      oooooooooo..oooo.oo.      ",
"      oooooooooooooooooooo      ",
"      oooooooooooooooooooo      "
};
