/* XPM */
static char *result[] = {
/* columns rows colors chars-per-pixel */
"32 32 7 1 ",
"  c #6C5C68",
". c #8C5C6D",
"X c #9E6872",
"o c #B37F7C",
"O c #8590B4",
"+ c #C59F8A",
"@ c #9DB3CA",
/* pixels */
"                                ",
".. XXXXXX ............ XXXXXX ..",
"X. XooooX .XXXXXXXXXX. XooooX .X",
"XX oo+++o ooooooooooXX oo+++o oo",
"XX oo  ++ oooo+oooooXX oo  ++ oo",
"XX oo  ++ ooX XoooooXX oo  ++ oo",
"XX o+++++ ooooooooooXX o+++++ oo",
"XX o+++++ ooooooooooXX o+++++ oo",
"X. o+++++ XoooooooooX. o+++++ Xo",
"   o+++++  XooXXXoXX   o+++++  X",
"X. o+++++ XoooooooooX. o+++++ Xo",
"XX o+++++ oooooo+oooXX o+++++ oo",
"XX o+++++ ooooXo XooXX o+++++ oo",
"XX o+++++ ooooooooooXX o+++++ oo",
"XX o+++++ ooooooooooXX o+++++ oo",
"XX o+++++ ooooooooooXX o+++++ oo",
"X. o+++++ XoooooooooX. o+++++ Xo",
"   o+++++  XXXoXoXXX   o+++++  X",
"X. o+++++ XoooooooooX. o+++++ Xo",
"XX oo+++o ooooooooooXX oo+++o oo",
"XX oooooo XXXXXXXXXXXX oooooo oo",
"XX oooooo XXXXXXXXXXXX oooooo XX",
" X oo  oo XX O    O XX oo  oo XX",
"XX oo  oo XX OOOO@@ XX oo  oo XX",
"XX oooooo XXX      XXX oooooo XX",
"XX oooooo XXXXXXXXXXXX oooooo XX",
"X. XooooX .XXXXXXXXXX. XooooX .X",
"                                ",
"                                ",
"                                ",
"                                ",
"oooooooooooooooooooooooooooooooo"
};
