/* XPM */
static char *_cda9e4c353e4ef191b699d0d5b49b08uj431FyZqwqc4e5V[] = {
/* columns rows colors chars-per-pixel */
"32 32 4 1 ",
"  c None",
". c #740032",
"X c #9D034B",
"o c #DC0066",
/* pixels */
"                                ",
"                                ",
"                                ",
"                                ",
"                                ",
"                                ",
"                                ",
"                                ",
"                                ",
"                                ",
"                                ",
"                                ",
"                                ",
"                                ",
"      .XXXXoXXXXXXXoXX.XX.      ",
"     .XXXXXXXXXXXXooXXXXXX.     ",
"     .XXXXX..XXXXXXoXXXooX.     ",
"     .XXXoX...ooX.XXXXXooX.     ",
"     .XXoooX..ooXXXXXXX..X.     ",
"     ..XooXX..XXXXXXoo...X.     ",
"     ..XXXXXXXXXoXXXoo...X.     ",
"     ...XXXXXXXooXXXXXXXXX.     ",
"     ...XXXoXXXoooooXXXXXX.     ",
"     ..XXooooXXXXo..XXooX.      ",
"      .XXooo...X....XoooX.      ",
"      ...ooo...X...Xoooo..      ",
"      ....oX..XXXXXoooXX..      ",
"      .....XXX..XXXXoo....      ",
"      oo...oo........oo...      ",
"      oooooooo....oooooo..      ",
"      oooooooooooooooooooo      ",
"      oooooooooooooooooooo      "
};
