/* XPM */
static char *result[] = {
/* columns rows colors chars-per-pixel */
"32 32 4 1 ",
"  c #740032",
". c #9D034B",
"X c #DC0066",
"o c None",
/* pixels */
"oooooooooooooooooooooooooooooooo",
"oooooooooooooooooooooooooooooooo",
"oooooooooooooooooooooooooooooooo",
"oooooooooooooooooooooooooooooooo",
"oooooooooooooooooooooooooooooooo",
"oooooooooooooooooooooooooooooooo",
"oooooooooooooooooooooooooooooooo",
"oooooooooooooooooooooooooooooooo",
"oooooooooooooooooooooooooooooooo",
"oooooooooooooooooooooooooooooooo",
"oooooooooooooooooooooooooooooooo",
"oooooooooooooooooooooooooooooooo",
"oooooooooooooooooooooooooooooooo",
"oooooooooooooooooooooooooooooooo",
"ooooooo..............X .. oooooo",
"oooooo.........X.......... ooooo",
"ooooo ...XX..  ..... ..... ooooo",
"ooooo ...XX..   . ..... .. ooooo",
"ooooo ....X..   ......X  . ooooo",
"ooooo  ....... .X.....   . ooooo",
"ooooo  ........XXX........ ooooo",
"ooooo   XX....XXX......... ooooo",
"ooooo  XXX..  XX.......XX. ooooo",
"ooooo  XXXX   ....  ..XXX oooooo",
"oooooo ..XX .... XXX..XXX oooooo",
"oooooo    ...... XXXX. X  oooooo",
"oooooo      ..X..  XXX    oooooo",
"oooooo      XXX    XXX    oooooo",
"oooooo     XXXXX  XXXXX   oooooo",
"oooooo  XXXXXXXXXXXXXXX  Xoooooo",
"ooooooXXXXXXXXXXXXXXXXXXXXoooooo",
"ooooooXXXXXXXXXXXXXXXXXXXXoooooo"
};
