/* XPM */
static char *result[] = {
/* columns rows colors chars-per-pixel */
"32 32 7 1 ",
"  c #6C5C68",
". c #8C5C6D",
"X c #9E6872",
"o c #B37F7C",
"O c #8590B4",
"+ c #C59F8A",
"@ c #9DB3CA",
/* pixels */
"                                ",
"X. XooooX .XXXXXXXXXX. XooooX .X",
".   XXoX    .XX...X.    XXoX   .",
"XX oooooo XXXXXXXXXXXX oooooo XX",
"XX oo  +o XX. .XXXXXXX oo  +o XX",
"XX o+++++ ooooooooooXX o+++++ oo",
"X. o+++++ XoooooooooX. o+++++ Xo",
"   o+++++  XooXXXoXX   o+++++  X",
".. oo+++o .ooooooooo.. oo+++o .o",
".. oooooo XXXX.X .XX.. oooooo XX",
".. oooooo .XXXXXXXXX.. oooooo .X",
"   oooooo  ...X.X...   oooooo  .",
".. oooooo XXXXXXXXXX.. oooooo .X",
".. oo  oo XX O .. O .. oo  oo XX",
".. XooooX .X O    @ .. XooooX .X",
"              OOO@              ",
"                                ",
"                                ",
"                                ",
"                                ",
"                                ",
"                                ",
"                                ",
"                                ",
"                                ",
"                                ",
"                                ",
"                                ",
"                                ",
"                                ",
"                                ",
"oooooooooooooooooooooooooooooooo"
};
