/* XPM */
static char *result[] = {
/* columns rows colors chars-per-pixel */
"32 32 4 1 ",
"  c #740032",
". c #9D034B",
"X c #DC0066",
"o c None",
/* pixels */
"oooooooooooooooooooooooooooooooo",
"oooooooooooooooooooooooooooooooo",
"oooooooooooooooooooooooooooooooo",
"oooooooooooooooooooooooooooooooo",
"oooooooooooooooooooooooooooooooo",
"oooooooooooooooooooooooooooooooo",
"oooooooooooooooooooooooooooooooo",
"oooooooooooooooooooooooooooooooo",
"oooooooooooooooooooooooooooooooo",
"oooooooooooooooooooooooooooooooo",
"oooooooooooooooooooooooooooooooo",
"oooooooooooooooooooooooooooooooo",
"oooooooooooooooooooooooooooooooo",
"oooooooooooooooooooooooooooooooo",
"oooooo                    oooooo",
"ooooo   XX                 ooooo",
"ooooo    XX..........      ooooo",
"ooooo   ..XXX.XXXXXX...XX  ooooo",
"ooooo  ....XXXXXXXXXXXXX   ooooo",
"ooooo  ...XXX .XXXXXXXX.   ooooo",
"ooooo  ....XX  .XXX  XX.   ooooo",
"ooooo  .....XX  .X  .XX.   ooooo",
"ooooo  ....XXX      XXX.   ooooo",
"ooooo   ..XXX      .XXX.  oooooo",
"oooooo   XXX      ..XX..  oooooo",
"oooooo   X.  .X.   XXX..  oooooo",
"oooooo    XXXXXXX .XX...  oooooo",
"oooooo     XXXXXX ..X     oooooo",
"ooooooXX  XXXXXXX..XX   X oooooo",
"ooooooXXXXXXXXXXXX.XXX XX oooooo",
"ooooooXXXXXXXXXXXXXXXXXXXXoooooo",
"ooooooXXXXXXXXXXXXXXXXXXXXoooooo"
};
