/* XPM */
static char *result[] = {
/* columns rows colors chars-per-pixel */
"32 32 7 1 ",
"  c #6C5C68",
". c #8C5C6D",
"X c #9E6872",
"o c #B37F7C",
"O c #8590B4",
"+ c #C59F8A",
"@ c #9DB3CA",
/* pixels */
"                                ",
"X. XooooX .XXXXXXXXXX. XooooX .X",
".   XXoX    .XX...X.    XXoX   .",
"XX oooooo XXXXXXXXXXXX oooooo XX",
"XX oo  +o XX. .XXXXXXX oo  +o XX",
"X. o+++++ XoooooooooXX o+++++ Xo",
"   oo+++o  XooXXXoXX   oo+++o  X",
".. oooooo .XXX.X .XX.. oooooo .X",
".. oooooo XXXXXXXXXX.. oooooo .X",
"   oooooo  ...X.X...   oooooo  .",
".. Xo  oX .X O .. O .. Xo  oX .X",
"             O    @             ",
"              OOO@              ",
"                                ",
"                                ",
"                                ",
"                                ",
"                                ",
"                                ",
"                                ",
"                                ",
"                                ",
"                                ",
"                                ",
"                                ",
"                                ",
"                                ",
"                                ",
"                                ",
"                                ",
"                                ",
"oooooooooooooooooooooooooooooooo"
};
