/* XPM */
static char *result[] = {
/* columns rows colors chars-per-pixel */
"32 32 4 1 ",
"  c #740032",
". c #9D034B",
"X c #DC0066",
"o c None",
/* pixels */
"oooooooooooooooooooooooooooooooo",
"oooooooooooooooooooooooooooooooo",
"oooooooooooooooooooooooooooooooo",
"oooooooooooooooooooooooooooooooo",
"oooooooooooooooooooooooooooooooo",
"oooooooooooooooooooooooooooooooo",
"oooooooooooooooooooooooooooooooo",
"oooooooooooooooooooooooooooooooo",
"oooooooooooooooooooooooooooooooo",
"oooooooooooooooooooooooooooooooo",
"oooooooooooooooooooooooooooooooo",
"oooooooooooooooooooooooooooooooo",
"oooooooooooooooooooooooooooooooo",
"oooooooooooooooooooooooooooooooo",
"oooooo    o oo  ooo oo ooooooooo",
"ooooo   ooooooo oooooooo   ooooo",
"ooooo  ooooooooooooooXooo  ooooo",
"ooooo oooooooooooooXXXooo  ooooo",
"ooooooooooooooXXoooXoooooooooooo",
"ooooooooXooooooXoooooooooooooooo",
"ooooooooooooXoooooooo oooooooooo",
"ooooooooXoooXXoo oooo o oooooooo",
"ooooooooooooooooooooooo oooooooo",
"oooooo  oooooooooooo     ooooooo",
"oooooo  ooooooo ooooo     oooooo",
"oooooo X ooooo  XXoooX  X.oooooo",
"oooooo XXooXo XXX.ooooXXX.oooooo",
"oooooo.X.o.XoXXo..Xo.XXooooooooo",
"oooooo.ooo.Xo..oo.Xo.Xoooooooooo",
"oooooooooooooooooooooooooooooooo",
"oooooooooooooooooooooooooooooooo",
"oooooooooooooooooooooooooooooooo"
};
