/* XPM */
static char *result[] = {
/* columns rows colors chars-per-pixel */
"32 32 78 1 ",
"  c #161616",
". c #1C1616",
"X c #231616",
"o c #291616",
"O c #341616",
"+ c #3D1616",
"@ c #3D1D1B",
"# c #3F211E",
"$ c #421717",
"% c #421B16",
"& c #441F1D",
"* c #452117",
"= c #4A2417",
"- c #45231C",
"; c #4B261C",
": c #4F291C",
"> c #552516",
", c #572916",
"< c #5A2D16",
"1 c #512A1C",
"2 c #5D3116",
"3 c #613616",
"4 c #633816",
"5 c #653A1B",
"6 c #442521",
"7 c #492622",
"8 c #4C2A22",
"9 c #522F22",
"0 c #553227",
"q c #5A3425",
"w c #683E22",
"e c #6A4125",
"r c #6D432A",
"t c #7E4C22",
"y c #70472E",
"u c #72482F",
"i c #744A32",
"p c #784E35",
"a c #7A5037",
"s c #7C5138",
"d c #82512C",
"f c #8E5C2D",
"g c #855633",
"h c #885736",
"j c #885837",
"k c #8B5B3C",
"l c #905E31",
"z c #97653A",
"x c #8E5F41",
"c c #8F6042",
"v c #936346",
"b c #95664A",
"n c #996749",
"m c #97684B",
"M c #99694F",
"N c #9D6D51",
"B c #A6724B",
"V c #A9754E",
"C c #A06F53",
"Z c #A27155",
"A c #B58466",
"S c #B78668",
"D c #B88668",
"F c #BC8A6D",
"G c #BF8D70",
"H c #C18E72",
"J c #C39274",
"K c #C89375",
"L c #C79478",
"P c #CA9679",
"I c #CC987B",
"U c #E0AF9F",
"Y c #E1B09F",
"T c #E5B3A4",
"R c #E8B6A7",
"E c #E9B7A8",
"W c #ECB9AA",
"Q c #FFD3C3",
/* pixels */
"YTTAATUUUUUUTAATTTTAATUUUUUUTAAT",
"TTRSSRTTUUTYTAATTTTDSRTTTUTUYSST",
"tdhkkgttttttdgggggjkjgdttttttggg",
"TgkkxkERTTTTTTjjTkkkcjETTUTTERjk",
"TEW2<WETRTTRRR>EEEW22EERRTTTEE1E",
"EEGG2GWEDDDRR<<EWEFJ3GWEDDDRW<2W",
"GGJJ542GGFFHH33HJFJJ542GGGFHJ44J",
"vb5w52ccxkxk233vkv2452vkxxkc45em",
"ree232<<<,,<<22<<<<2<2<<,,,25ery",
"ye4JWWRERFRREEHQQHWWWWFEETEEG4ru",
"yeJWRTTRSTTTRFfQQfFTTTRDSRTRWJeu",
"yeWWRTRDRRRRREflffWRWTTTRTRREWwy",
"rwGGFFFkGFHFkHHzzHHkHFFHkFGDFJ5r",
"e5LGGGJbKKKKnPPPPPPnKKKKnJHGJJwe",
"LLJcb %     .     ..     $ bvLLL",
"MmbLL&1                  1%LLvMm",
"NNeLL;q                  1=LLerM",
"yreLI:q                  q:ILery",
"yyrII:                   .1IPryy",
"iNMMM q                  q CMMNN",
"iNMLI:q                  q8IPMNN",
"iy5UI:q                   :IPryi",
"NiwLI8                   q NPyii",
"ZNuLC 0                  qNNNNNZ",
"88;*MZq.                 0II%;:9",
"ssi&II1                  1IPyups",
"87$+II1O 7 8 8 8 7 7 7 - :PPO+-7",
"oVB II1 # 6 7 7 7 7 7 6 O:IPnBVX",
"09;*II.O##6676666766666@O II%=80",
"sZCNIIXO#66666666666666@O.IINZZZ",
"0ZiuCZXO#66666666666666@OoZNiipa",
"0spppZo@#66666666666666#@oZpipp0"
};
